<svg width="84" height="45" viewBox="0 0 84 45" fill="none" xmlns="http://www.w3.org/2000/svg">
<path id="Combined Shape{:linearEase;20,0,0,100,51.1,360,1;}" d="M20.0601 17.2946L22.0354 16.9814C22.019 16.878 21.9946 16.776 21.9622 16.6764L20.0601 17.2946ZM20.6613 21.0862L18.686 21.3994C18.6931 21.4442 18.7017 21.4887 18.7119 21.5329L20.6613 21.0862ZM19.8517 16.6533L21.7538 16.0351C21.7135 15.9112 21.6612 15.7914 21.5976 15.6777L19.8517 16.6533ZM19.5471 16.1082L21.293 15.1326C21.2159 14.9947 21.1228 14.8665 21.0156 14.7505L19.5471 16.1082ZM19.1543 15.6834L20.6229 14.3257C20.4851 14.1767 20.3256 14.0496 20.1496 13.9486L19.1543 15.6834ZM18.6653 15.4028L19.6607 13.6681C19.4652 13.5559 19.2523 13.4776 19.0308 13.4365L18.6653 15.4028ZM17.7595 15.2345L16.7823 16.9795C16.9728 17.0862 17.1795 17.1609 17.3941 17.2008L17.7595 15.2345ZM17.5591 15.1222L16.2077 16.5965C16.3215 16.7009 16.4471 16.7918 16.5819 16.8673L17.5591 15.1222ZM17.3667 14.9459L18.7182 13.4716C18.6026 13.3657 18.475 13.2737 18.338 13.1976L17.3667 14.9459ZM17.0782 14.7856L18.0494 13.0373C17.9784 12.9978 17.9049 12.9626 17.8296 12.9321L17.0782 14.7856ZM16.7816 14.6653L17.533 12.8119C17.3767 12.7485 17.213 12.7052 17.0459 12.6829L16.7816 14.6653ZM16.5411 14.6333L16.8054 12.6508C16.5278 12.6138 16.2455 12.6355 15.9768 12.7145L16.5411 14.6333ZM16.4048 14.6733L15.8405 12.7546C15.6621 12.8071 15.4918 12.8842 15.3347 12.9837L16.4048 14.6733ZM16.1643 14.8257L16.4763 16.8012C16.7458 16.7586 17.0039 16.6613 17.2344 16.5153L16.1643 14.8257ZM16.012 14.8497L15.0315 16.5929C15.4239 16.8136 15.8793 16.8954 16.3239 16.8252L16.012 14.8497ZM15.8838 14.7776L14.2098 15.8721C14.3855 16.1408 14.6234 16.3633 14.9033 16.5207L15.8838 14.7776ZM15.3387 13.9439L13.4088 14.4688C13.4638 14.6709 13.5501 14.8631 13.6647 15.0384L15.3387 13.9439ZM15.0661 12.9419L16.996 12.417C16.9512 12.2523 16.8856 12.0941 16.8006 11.9461L15.0661 12.9419ZM14.5691 12.0762L12.7325 12.8678C12.7626 12.9377 12.7967 13.0059 12.8346 13.0719L14.5691 12.0762ZM14.3687 11.6112L16.2054 10.8196C15.8815 10.0682 15.1326 9.58985 14.3147 9.61195L14.3687 11.6112ZM14.0721 11.6192L14.0181 9.61997C13.7587 9.62698 13.5031 9.68441 13.2656 9.78906L14.0721 11.6192ZM13.5992 11.8277L12.9362 13.7146C13.4155 13.883 13.9409 13.8627 14.4057 13.6578L13.5992 11.8277ZM13.3026 11.7234L11.6235 12.81C11.8642 13.182 12.2216 13.4635 12.6396 13.6104L13.3026 11.7234ZM12.9499 11.1784L14.629 10.0919C14.4673 9.84184 14.2517 9.63111 13.9981 9.47504L12.9499 11.1784ZM12.7415 11.0501L10.7514 11.2491C10.8135 11.87 11.1618 12.4264 11.6933 12.7534L12.7415 11.0501ZM12.7335 10.9699L14.7235 10.7709C14.6955 10.4905 14.6085 10.2191 14.4682 9.9746L12.7335 10.9699ZM12.4529 10.481L14.1876 9.48562C14.0628 9.26806 13.8982 9.07592 13.7023 8.91922L12.4529 10.481ZM12.3727 10.4168L13.6221 8.85509C13.4678 8.73167 13.2961 8.63178 13.1126 8.5587L12.3727 10.4168ZM11.507 10.0721L12.2468 8.21401C12.0987 8.15503 11.944 8.11397 11.7861 8.09172L11.507 10.0721ZM10.3126 9.90381L10.5917 7.92338C10.4615 7.90503 10.3298 7.89956 10.1985 7.90706L10.3126 9.90381ZM9.7515 9.93587L9.6374 7.93913C9.51225 7.94628 9.38804 7.96518 9.26643 7.99559L9.7515 9.93587ZM9.36673 10.0321L9.5876 12.0198C9.67663 12.0099 9.7649 11.9941 9.85181 11.9723L9.36673 10.0321ZM9.22245 10.0481L8.46094 11.8975C8.77157 12.0254 9.10943 12.073 9.44331 12.0359L9.22245 10.0481ZM9.08617 9.99198L7.67196 11.4062C7.85867 11.5929 8.08051 11.7408 8.32467 11.8413L9.08617 9.99198ZM8.85371 9.75952L10.2679 8.3453C10.1328 8.21023 9.97911 8.0952 9.81141 8.00373L8.85371 9.75952ZM8.67735 9.66333L7.20983 11.0221C7.35713 11.1812 7.52932 11.3153 7.71965 11.4191L8.67735 9.66333ZM8.47695 9.44689L9.94448 8.08808C9.8062 7.93874 9.64594 7.81138 9.46923 7.71041L8.47695 9.44689ZM8.2525 9.31864L9.24478 7.58215C9.04135 7.46591 8.81908 7.38631 8.5881 7.347L8.2525 9.31864ZM7.87575 9.25451L7.00541 11.0552C7.17474 11.137 7.35476 11.1946 7.54015 11.2262L7.87575 9.25451ZM6.91383 8.78958L7.78416 6.98888C7.57865 6.88955 7.35764 6.82613 7.13072 6.80138L6.91383 8.78958ZM6.47295 8.74148L6.68984 6.75328C6.00091 6.67812 5.32217 6.96497 4.89594 7.51142L6.47295 8.74148ZM6.16032 9.14228L4.70125 10.5102C5.10097 10.9365 5.66718 11.1667 6.25102 11.1402C6.83485 11.1137 7.37788 10.8332 7.73733 10.3723L6.16032 9.14228ZM6.04008 9.01403L4.18313 9.75681C4.27566 9.98814 4.4106 10.2001 4.58101 10.3819L6.04008 9.01403ZM5.86373 8.57315L7.72068 7.83037C7.70379 7.78814 7.68546 7.7465 7.66573 7.70552L5.86373 8.57315ZM5.75952 8.35671L7.56152 7.48908C7.46392 7.28637 7.33282 7.10159 7.17373 6.9425L5.75952 8.35671ZM5.48697 8.08417L3.83452 9.21084C3.90479 9.31391 3.98455 9.41017 4.07276 9.49838L5.48697 8.08417ZM5.36673 7.90782L3.37823 7.69367C3.32733 8.16634 3.44646 8.64169 3.71428 9.03449L5.36673 7.90782ZM5.42285 7.38677L7.41135 7.60092C7.44634 7.27599 7.40117 6.94743 7.2798 6.64399L5.42285 7.38677ZM5.23046 6.90581L7.08741 6.16303C7.05114 6.07235 7.00827 5.98444 6.95916 5.90002L5.23046 6.90581ZM4.97395 6.46493L6.70264 5.45914C6.65307 5.37394 6.59727 5.29252 6.53569 5.21554L4.97395 6.46493ZM4.78156 6.22445L6.3433 4.97506C6.15512 4.73983 5.91623 4.55015 5.64447 4.42018L4.78156 6.22445ZM4.41283 6.0481L5.27574 4.24383C5.17863 4.19738 5.07793 4.15886 4.97462 4.12862L4.41283 6.0481ZM3.75551 5.85571L2.31215 7.24016C2.55418 7.4925 2.85814 7.67697 3.19371 7.77519L3.75551 5.85571ZM3.37876 5.46293L4.82212 4.07848C4.64641 3.89529 4.43744 3.74723 4.20636 3.64219L3.37876 5.46293ZM3.2024 5.38277L4.03001 3.56203C3.86818 3.48847 3.69727 3.43682 3.52178 3.40843L3.2024 5.38277ZM2.65731 5.29459L1.8742 7.1349C2.0228 7.19813 2.17852 7.24314 2.33794 7.26892L2.65731 5.29459ZM2.28056 5.13427L3.06367 3.29396C2.93785 3.24042 2.80688 3.19992 2.67279 3.17311L2.28056 5.13427ZM2 5.07816L0.0476259 4.6443C-0.0690413 5.1693 0.0306474 5.71916 0.324193 6.16979C0.617739 6.62043 1.0804 6.93384 1.60777 7.03932L2 5.07816ZM2.06413 4.78958L0.196163 4.07494C0.161196 4.16634 0.132983 4.26019 0.111754 4.35572L2.06413 4.78958ZM2.87375 2.67335L1.16335 1.63674C1.1013 1.73913 1.04856 1.84689 1.00578 1.95871L2.87375 2.67335ZM3.03407 2.40882L1.92467 0.744717C1.68077 0.907314 1.4756 1.12153 1.32367 1.37221L3.03407 2.40882ZM3.32265 2.21643L2.80131 0.285575C2.59214 0.342053 2.39352 0.432146 2.21324 0.552332L3.32265 2.21643ZM4.12425 2V0C3.94819 0 3.77289 0.0232482 3.60292 0.0691419L4.12425 2ZM4.9499 2L5.65382 0.127971C5.42878 0.0433506 5.19033 0 4.9499 0V2ZM7.89178 3.10621L7.18786 4.97824C7.33879 5.03499 7.49603 5.07329 7.65615 5.09228L7.89178 3.10621ZM8.36473 3.16232L8.12909 5.1484C8.37693 5.1778 8.62808 5.16056 8.86957 5.09756L8.36473 3.16232ZM8.73347 3.06613L9.23831 5.00137C9.38611 4.96281 9.52901 4.90745 9.66421 4.83636L8.73347 3.06613ZM9.51102 2.65731L9.29016 0.669547C9.04203 0.697117 8.80126 0.7709 8.58028 0.887083L9.51102 2.65731ZM9.94389 2.60922L10.8548 0.828722C10.506 0.650255 10.1125 0.578181 9.72302 0.621451L9.94389 2.60922ZM10.2886 2.78557L11.5115 1.203C11.4138 1.12754 11.3094 1.06128 11.1995 1.00507L10.2886 2.78557ZM10.994 3.33066L9.77109 4.91323C9.94153 5.04493 10.1321 5.14824 10.3355 5.21915L10.994 3.33066ZM12.2124 3.75551L13.2202 2.02795C13.1092 1.96322 12.9922 1.90932 12.8709 1.86702L12.2124 3.75551ZM12.5972 3.97996L13.8503 2.42121C13.7728 2.35892 13.6908 2.30249 13.6049 2.2524L12.5972 3.97996ZM14.2325 5.29459L12.9794 6.85334C13.1994 7.03025 13.4544 7.15855 13.7276 7.22982L14.2325 5.29459ZM14.6012 5.39078L14.0964 7.32602C14.3486 7.39183 14.6114 7.40768 14.8697 7.37267L14.6012 5.39078ZM15.8437 5.22244L16.2734 3.26916C16.0441 3.21872 15.8078 3.20904 15.5752 3.24055L15.8437 5.22244ZM16.2445 5.31062L17.1389 3.52177C16.9914 3.448 16.8353 3.39277 16.6742 3.35733L16.2445 5.31062ZM16.6293 5.50301L17.903 3.96108C17.7863 3.86468 17.6591 3.78184 17.5237 3.71415L16.6293 5.50301ZM16.998 5.80762L15.7242 7.34954C15.8653 7.46606 16.0217 7.56268 16.189 7.63669L16.998 5.80762ZM17.4148 5.99198L16.6058 7.82105C16.9808 7.98691 17.3977 8.03351 17.8 7.95454L17.4148 5.99198ZM18.2725 5.82365L19.0153 3.96669C18.6574 3.82351 18.2657 3.78684 17.8874 3.86109L18.2725 5.82365ZM18.6333 5.96794L20.3102 4.87796C20.0853 4.53208 19.7591 4.26419 19.376 4.11098L18.6333 5.96794ZM18.7375 6.12826L20.5698 5.32662C20.526 5.22642 20.474 5.12998 20.4144 5.03828L18.7375 6.12826ZM18.9058 6.51303L17.0735 7.31466C17.1204 7.42198 17.1767 7.52496 17.2417 7.62243L18.9058 6.51303ZM19.018 6.68136L17.3539 7.79077C17.4852 7.98764 17.6503 8.15967 17.8417 8.29884L19.018 6.68136ZM19.1944 6.80962L18.018 8.42709C18.1882 8.55081 18.3767 8.64691 18.5768 8.71187L19.1944 6.80962ZM19.8116 7.01002L20.8276 5.28729C20.7018 5.21308 20.5682 5.15288 20.4292 5.10777L19.8116 7.01002ZM20.1242 7.19439L21.5695 5.81194C21.4427 5.67936 21.2983 5.56486 21.1402 5.47166L20.1242 7.19439ZM20.6533 7.7475L19.208 9.12994C19.3535 9.28207 19.5222 9.41028 19.7077 9.50982L20.6533 7.7475ZM20.982 7.92385L20.0363 9.68617C20.2722 9.81273 20.531 9.89065 20.7976 9.91533L20.982 7.92385ZM21.4148 7.96393L21.2304 9.95541C21.3827 9.96951 21.536 9.9661 21.6875 9.94525L21.4148 7.96393ZM22.2886 7.84369L22.5094 5.85592C22.3453 5.83768 22.1795 5.83985 22.0159 5.86236L22.2886 7.84369ZM22.7214 7.89178L23.2761 5.97024C23.1669 5.93872 23.0553 5.91657 22.9423 5.90402L22.7214 7.89178ZM23.499 8.11623L22.9443 10.0378C23.0565 10.0702 23.1713 10.0927 23.2874 10.105L23.499 8.11623ZM23.8758 8.15631L23.6642 10.1451C23.8115 10.1608 23.9601 10.16 24.1072 10.1429L23.8758 8.15631ZM24.7014 8.06012L24.7922 6.06218C24.6847 6.05729 24.5769 6.0611 24.47 6.07356L24.7014 8.06012ZM25.0541 8.07615L25.5917 6.14976C25.446 6.10909 25.2961 6.08509 25.1449 6.07822L25.0541 8.07615ZM25.3988 8.17234L26.2779 6.37591C26.1683 6.32226 26.054 6.27876 25.9364 6.24595L25.3988 8.17234ZM25.7756 8.35671L24.8964 10.1531C24.9957 10.2017 25.0987 10.242 25.2046 10.2735L25.7756 8.35671ZM26.1523 8.46894L25.5813 10.3857C25.7266 10.429 25.8763 10.4556 26.0275 10.465L26.1523 8.46894ZM26.5371 8.49299L26.4123 10.4891C26.5936 10.5004 26.7756 10.487 26.9533 10.4492L26.5371 8.49299ZM26.9138 8.41283L27.33 10.369C27.522 10.3282 27.7069 10.2593 27.8788 10.1646L26.9138 8.41283ZM27.8597 7.89178L27.1664 6.01579C27.0729 6.05036 26.9821 6.09187 26.8947 6.13998L27.8597 7.89178ZM28.2285 7.75551L28.0617 5.76247C27.8817 5.77753 27.7046 5.81691 27.5352 5.87952L28.2285 7.75551ZM30.2405 7.58717L30.5124 5.60575C30.3671 5.5858 30.22 5.5819 30.0737 5.59414L30.2405 7.58717ZM31.0581 7.6994L32.172 6.03831C31.9194 5.8689 31.6314 5.75934 31.3301 5.71798L31.0581 7.6994ZM31.7395 8.15631L33.1715 6.76011C33.0749 6.66105 32.9683 6.57228 32.8534 6.49523L31.7395 8.15631ZM32.0521 8.47695L30.6201 9.87316C30.6802 9.93476 30.7441 9.99242 30.8116 10.0458L32.0521 8.47695ZM32.3968 8.7495L31.1563 10.3183C31.2366 10.3818 31.3217 10.4391 31.4108 10.4895L32.3968 8.7495ZM33.1182 9.15832L32.1322 10.8984C32.3133 11.001 32.5092 11.0747 32.713 11.1168L33.1182 9.15832ZM33.3507 9.20641L32.9455 11.1649C33.3461 11.2478 33.7625 11.2059 34.1385 11.0447L33.3507 9.20641ZM33.519 9.13427L34.3069 10.9726C34.5249 10.8791 34.7246 10.7476 34.8965 10.5843L33.519 9.13427ZM33.8397 8.82966L33.0016 7.01374C32.803 7.1054 32.6208 7.22902 32.4622 7.37966L33.8397 8.82966ZM34.0481 8.73347L34.0056 6.73392C33.7306 6.73977 33.4597 6.80228 33.21 6.91755L34.0481 8.73347ZM34.4249 8.72545L34.4674 10.725C34.6593 10.7209 34.8496 10.6892 35.0324 10.6309L34.4249 8.72545ZM34.978 8.5491L35.0457 6.55025C34.8169 6.54249 34.5885 6.57407 34.3704 6.64361L34.978 8.5491ZM35.4509 8.56513L35.9599 6.63098C35.8157 6.59303 35.6677 6.57133 35.5187 6.56628L35.4509 8.56513ZM35.9078 8.68537L36.9893 7.00301C36.8129 6.88958 36.6197 6.80461 36.4168 6.75122L35.9078 8.68537ZM36.2445 8.9018L37.6238 7.45353C37.5322 7.36626 37.4325 7.28788 37.326 7.21945L36.2445 8.9018ZM36.5812 9.22245L35.2018 10.6707C35.2828 10.7478 35.3702 10.8181 35.4629 10.8806L36.5812 9.22245ZM36.9258 9.45491L35.8076 11.1131C35.9398 11.2022 36.0822 11.2752 36.2317 11.3306L36.9258 9.45491ZM37.9439 9.83166H39.9439C39.9439 8.99481 39.4229 8.24644 38.638 7.95599L37.9439 9.83166ZM37.9439 10.0481L39.8468 10.6637C39.9111 10.4649 39.9439 10.2571 39.9439 10.0481H37.9439ZM37.8557 10.3206L35.9528 9.705C35.9195 9.80815 35.8945 9.91384 35.8783 10.021L37.8557 10.3206ZM37.8156 10.5852L35.8382 10.2856C35.7636 10.7779 35.8753 11.2803 36.1515 11.6946L37.8156 10.5852ZM37.9279 10.7535L36.2638 11.8629C36.3987 12.0653 36.5694 12.2414 36.7675 12.3825L37.9279 10.7535ZM38.513 11.1703L39.8905 9.72034C39.8224 9.65566 39.7499 9.59585 39.6734 9.54137L38.513 11.1703ZM39.7956 12.3888L38.4181 13.8388C38.5418 13.9563 38.68 14.0575 38.8294 14.1399L39.7956 12.3888ZM40.0281 12.517L39.0619 14.2682C39.0776 14.2768 39.0933 14.2853 39.1092 14.2935L40.0281 12.517ZM40.2605 12.6373L39.3417 14.4137C39.4598 14.4748 39.5838 14.524 39.7117 14.5605L40.2605 12.6373ZM43.6593 13.6072L43.1105 15.5304C43.1316 15.5365 43.1529 15.5422 43.1742 15.5475L43.6593 13.6072ZM44.1082 13.7194L44.9957 11.9271C44.8672 11.8635 44.7323 11.8139 44.5933 11.7792L44.1082 13.7194ZM44.9339 14.1283L46.2551 12.6268C46.1239 12.5113 45.978 12.4135 45.8213 12.3359L44.9339 14.1283ZM45.1343 14.3046L46.669 13.0222C46.6035 12.9438 46.5322 12.8706 46.4555 12.8032L45.1343 14.3046ZM45.6232 14.8898L44.0885 16.1722C44.2185 16.3277 44.3713 16.4626 44.5417 16.5721L45.6232 14.8898ZM45.8477 15.0341L44.7662 16.7164C44.9515 16.8356 45.1553 16.9233 45.3693 16.976L45.8477 15.0341ZM46.9539 15.3066L47.859 13.5231C47.7233 13.4542 47.5801 13.4011 47.4324 13.3647L46.9539 15.3066ZM47.491 15.5792L49.4213 15.0557C49.2732 14.5096 48.9006 14.0517 48.396 13.7957L47.491 15.5792ZM47.6192 16.0521L49.2624 17.1923C49.5989 16.7073 49.704 16.0984 49.5495 15.5286L47.6192 16.0521ZM47.3467 16.4449L48.5062 18.0745C48.6945 17.9405 48.8581 17.7749 48.9899 17.5851L47.3467 16.4449ZM46.9299 16.7415L45.7704 15.1119C45.6862 15.1718 45.6067 15.2382 45.5328 15.3103L46.9299 16.7415ZM46.5932 17.0701L45.1961 15.639C44.8435 15.9832 44.6304 16.4454 44.5976 16.9371L46.5932 17.0701ZM46.5611 17.5511L44.5656 17.4181C44.5325 17.9137 44.6851 18.4039 44.9936 18.7933L46.5611 17.5511ZM46.8978 17.976L45.3303 19.2181C45.5968 19.5544 45.9645 19.7961 46.3789 19.9075L46.8978 17.976ZM47.4349 18.1202L46.916 20.0518C47.041 20.0853 47.169 20.1067 47.2982 20.1156L47.4349 18.1202ZM48.02 18.1603L48.5354 16.2279C48.4115 16.1948 48.2847 16.1738 48.1567 16.165L48.02 18.1603ZM48.501 18.2886L49.7159 16.6999C49.5075 16.5405 49.2698 16.4237 49.0163 16.3561L48.501 18.2886ZM48.7735 18.497L50.0539 16.9606C50.0325 16.9427 50.0106 16.9252 49.9884 16.9083L48.7735 18.497ZM48.9178 18.6172L47.6375 20.1537C47.7631 20.2584 47.9011 20.3472 48.0483 20.4183L48.9178 18.6172ZM49.1503 18.7295L48.2808 20.5306C48.664 20.7155 49.0961 20.7735 49.5145 20.696L49.1503 18.7295ZM49.3667 18.6894L49.7309 20.6559C50.0799 20.5913 50.4054 20.435 50.674 20.203L49.3667 18.6894ZM49.5431 18.5371L50.8503 20.0507C50.9669 19.95 51.0715 19.8362 51.1619 19.7115L49.5431 18.5371ZM49.8397 18.1283L48.3598 16.7829C48.3104 16.8373 48.264 16.8943 48.2208 16.9538L49.8397 18.1283ZM50 17.9519L49.1391 16.1467C48.9049 16.2584 48.6947 16.4146 48.5201 16.6065L50 17.9519ZM50.521 17.7034L50.4233 15.7058C50.1586 15.7188 49.8992 15.7842 49.6601 15.8982L50.521 17.7034ZM51.6673 17.6473L51.7651 19.6449C51.9197 19.6373 52.0729 19.6118 52.2217 19.5689L51.6673 17.6473ZM52.0842 17.5271L52.6385 19.4487C52.6759 19.4379 52.7131 19.426 52.7498 19.413L52.0842 17.5271ZM52.2204 17.479L52.8861 19.3649C53.1741 19.2633 53.4351 19.097 53.6489 18.8788L52.2204 17.479ZM52.6132 17.0782L54.0417 18.478C54.1974 18.3191 54.3255 18.1354 54.4207 17.9343L52.6132 17.0782ZM52.8297 16.6212L51.3085 15.3227C51.194 15.4569 51.0977 15.6056 51.0222 15.7651L52.8297 16.6212ZM53.1102 16.2926L53.0648 14.2931C52.4955 14.306 51.9588 14.561 51.5891 14.9941L53.1102 16.2926ZM54.1683 16.2685L54.2138 18.268C54.4134 18.2635 54.6113 18.2291 54.8008 18.1659L54.1683 16.2685ZM54.6493 16.1082L55.2817 18.0056C55.3888 17.9699 55.4926 17.9253 55.5921 17.8721L54.6493 16.1082ZM55.5792 15.6112L55.0416 13.6848C54.901 13.7241 54.7651 13.7786 54.6364 13.8474L55.5792 15.6112ZM55.9238 15.515L55.7644 13.5214C55.6365 13.5316 55.5098 13.5541 55.3862 13.5886L55.9238 15.515ZM56.525 15.4669L56.777 13.4829C56.6405 13.4655 56.5027 13.4623 56.3656 13.4733L56.525 15.4669ZM57.0301 15.5311L57.6441 13.6276C57.5261 13.5896 57.4049 13.5626 57.282 13.547L57.0301 15.5311ZM57.5271 15.6914L58.5328 13.9627C58.4089 13.8906 58.2775 13.832 58.1411 13.788L57.5271 15.6914ZM57.9679 15.9479L59.2417 14.406C59.1576 14.3365 59.068 14.274 58.9737 14.2192L57.9679 15.9479ZM58.1523 16.1002L59.6124 14.7334C59.5541 14.6711 59.4918 14.6126 59.4261 14.5583L58.1523 16.1002ZM58.505 16.477L60.1691 15.3675C60.1083 15.2763 60.04 15.1902 59.9651 15.1101L58.505 16.477ZM58.6493 16.6934L60.5623 16.1098C60.5054 15.9233 60.4215 15.7462 60.3134 15.584L58.6493 16.6934ZM58.9379 17.6393L57.0249 18.2229C57.1155 18.5199 57.274 18.7917 57.4879 19.0168L58.9379 17.6393ZM59.0902 17.7996L57.6402 19.1771C58.0287 19.5861 58.5719 19.812 59.1358 19.7991C59.6998 19.7862 60.2321 19.5358 60.6015 19.1095L59.0902 17.7996ZM59.1944 17.6794L60.7058 18.9892C60.9257 18.7354 61.0782 18.4303 61.1492 18.102L59.1944 17.6794ZM59.3868 16.7896L57.568 15.9576C57.508 16.0887 57.4624 16.226 57.4319 16.3669L59.3868 16.7896ZM59.7315 16.0361L61.5502 16.868C61.5932 16.7741 61.6288 16.677 61.6568 16.5776L59.7315 16.0361ZM59.8036 15.7796L58.2036 14.5796C58.0555 14.7771 57.9452 15.0004 57.8783 15.238L59.8036 15.7796ZM60.1162 15.3627L60.5144 13.4028C59.7574 13.249 58.9797 13.5448 58.5162 14.1627L60.1162 15.3627ZM60.6293 15.4669L61.7955 13.8422C61.566 13.6774 61.3042 13.5632 61.0274 13.507L60.6293 15.4669ZM61.9359 16.4048L60.7696 18.0296C60.8557 18.0914 60.9466 18.1463 61.0414 18.1937L61.9359 16.4048ZM62.1443 16.509L61.2499 18.2979C61.3961 18.371 61.5508 18.4259 61.7104 18.4614L62.1443 16.509ZM62.3607 16.5571L61.9269 18.5095C62.185 18.5669 62.452 18.5725 62.7123 18.526L62.3607 16.5571ZM62.5852 16.517L62.9368 18.4859C63.091 18.4583 63.2415 18.4128 63.3851 18.3501L62.5852 16.517ZM63.0261 16.3246L62.7528 14.3434C62.5713 14.3684 62.3941 14.4183 62.2262 14.4916L63.0261 16.3246ZM63.2585 16.2926L63.9608 14.4199C63.6497 14.3033 63.3144 14.2659 62.9852 14.3113L63.2585 16.2926ZM63.6433 16.4369L64.9677 14.9382C64.7849 14.7766 64.574 14.6499 64.3455 14.5642L63.6433 16.4369ZM63.988 16.7415L65.5378 15.4774C65.4692 15.3932 65.3938 15.3148 65.3124 15.2428L63.988 16.7415ZM65.1583 18.1764L66.9267 17.2421C66.8649 17.1252 66.7917 17.0147 66.7082 16.9122L65.1583 18.1764ZM65.3828 18.6012L67.2001 17.7662C67.1847 17.7327 67.1684 17.6996 67.1512 17.667L65.3828 18.6012ZM65.519 18.8978L63.7017 19.7328C63.7373 19.8103 63.7778 19.8855 63.823 19.9578L65.519 18.8978ZM65.6393 19.0902L63.9433 20.1502C64.1658 20.5062 64.4948 20.7832 64.8835 20.9419L65.6393 19.0902ZM66.0321 19.2505L65.2763 21.1022C65.6036 21.2358 65.9605 21.2802 66.3106 21.231L66.0321 19.2505ZM66.5451 19.1784L66.8236 21.1589C66.9238 21.1448 67.0228 21.1231 67.1198 21.094L66.5451 19.1784ZM67.507 18.8898L67.5541 16.8903C67.3437 16.8854 67.1339 16.9137 66.9323 16.9741L67.507 18.8898ZM68.1884 18.9058L68.535 16.9361C68.4361 16.9187 68.3359 16.9087 68.2354 16.9064L68.1884 18.9058ZM69.1904 19.0822L69.9276 17.223C69.8015 17.173 69.6707 17.136 69.5371 17.1124L69.1904 19.0822ZM70.1202 19.4509L71.655 18.1685C71.4413 17.9128 71.1672 17.7146 70.8575 17.5917L70.1202 19.4509ZM70.6092 20.0361L72.5984 20.2433C72.6544 19.7057 72.4905 19.1684 72.1439 18.7536L70.6092 20.0361ZM70.5691 20.4208L72.4387 21.1313C72.5002 20.9694 72.5404 20.8003 72.5584 20.628L70.5691 20.4208ZM69.1984 24.0281L67.3288 23.3176C67.1682 23.7404 67.1556 24.2052 67.2931 24.6361L69.1984 24.0281ZM69.3186 24.4048L67.4133 25.0129C67.5545 25.4551 67.845 25.8345 68.2352 26.086L69.3186 24.4048ZM69.6794 24.6373L68.596 26.3184C68.6721 26.3675 68.7515 26.4113 68.8336 26.4496L69.6794 24.6373ZM70.1603 24.8617L71.3133 23.2275C71.2164 23.1591 71.1136 23.0995 71.0061 23.0494L70.1603 24.8617ZM71.4669 25.7836L70.314 27.4178C70.5108 27.5567 70.7312 27.6589 70.9644 27.7194L71.4669 25.7836ZM72.3006 26L73.7148 24.5858C73.4628 24.3338 73.1481 24.1537 72.8032 24.0642L72.3006 26ZM72.4609 26.1603L74.3117 25.4024C74.2112 25.1568 74.0628 24.9337 73.8751 24.7461L72.4609 26.1603ZM72.8056 27.002L70.9548 27.76C71.0078 27.8895 71.0743 28.013 71.1531 28.1287L72.8056 27.002ZM72.9258 27.1784L71.2734 28.305C71.4505 28.5648 71.6865 28.7792 71.962 28.9308L72.9258 27.1784ZM73.0862 27.2665L72.1224 29.019C72.3754 29.1581 72.6556 29.2409 72.9437 29.2614L73.0862 27.2665ZM73.3106 27.2826L73.1681 29.2775C73.6003 29.3084 74.0308 29.198 74.3949 28.9632L73.3106 27.2826ZM73.5591 27.1222L73.7402 25.1305C73.2955 25.09 72.8501 25.1996 72.4749 25.4417L73.5591 27.1222ZM73.7355 27.1383L74.9692 25.5642C74.6659 25.3264 74.3004 25.1814 73.9165 25.1465L73.7355 27.1383ZM74.0321 27.3707L72.7983 28.9448C73.2307 29.2837 73.7834 29.4298 74.3267 29.3489L74.0321 27.3707ZM74.4088 27.3146L75.5182 25.6505C75.1053 25.3753 74.6049 25.2634 74.1142 25.3364L74.4088 27.3146ZM74.5291 27.3948L76.4771 26.9418C76.3618 26.4461 76.0619 26.013 75.6384 25.7307L74.5291 27.3948ZM74.6092 27.7395L72.6612 28.1925C72.7996 28.7877 73.2026 29.287 73.7552 29.548L74.6092 27.7395ZM74.8978 27.8758L74.0438 29.6843C74.2976 29.8041 74.5737 29.8692 74.8543 29.8753L74.8978 27.8758ZM75.2665 27.8838L75.2231 29.8833C75.3737 29.8866 75.5242 29.8728 75.6717 29.8423L75.2665 27.8838ZM75.9639 27.7395L75.7599 25.7499C75.6923 25.7568 75.6252 25.7672 75.5587 25.781L75.9639 27.7395ZM76.2766 27.7074L76.826 25.7844C76.5813 25.7145 76.3256 25.6919 76.0725 25.7179L76.2766 27.7074ZM76.3888 27.7395L77.6574 26.1933C77.446 26.0198 77.2012 25.8916 76.9382 25.8164L76.3888 27.7395ZM76.7014 27.996L78.2378 26.7156C78.1572 26.6188 78.0675 26.5298 77.97 26.4498L76.7014 27.996ZM77.2224 28.6212L75.686 29.9016C75.8709 30.1235 76.1018 30.3028 76.3626 30.427L77.2224 28.6212ZM77.5591 28.7816L76.6993 30.5873C76.9201 30.6925 77.1584 30.7562 77.4023 30.7754L77.5591 28.7816ZM78.2725 28.8377L79.2803 27.1101C79.0203 26.9585 78.7294 26.8674 78.4294 26.8438L78.2725 28.8377ZM78.5611 29.006L80.1729 27.8218C80.0108 27.6013 79.8053 27.4164 79.5689 27.2785L78.5611 29.006ZM78.8497 29.3988L80.6537 30.2623C80.9724 29.5965 80.8984 28.8094 80.4615 28.2146L78.8497 29.3988ZM78.4008 30.3367L80.1041 31.3849C80.1409 31.3251 80.1745 31.2634 80.2048 31.2001L78.4008 30.3367ZM78.1443 30.7535L79.6983 32.0125C79.7526 31.9455 79.8024 31.8751 79.8476 31.8017L78.1443 30.7535ZM77.6313 31.3868L78.9385 32.9004C79.0282 32.823 79.1107 32.7378 79.1853 32.6457L77.6313 31.3868ZM77.4549 31.5391L78.3493 33.3279C78.4978 33.2537 78.6365 33.1612 78.7622 33.0527L77.4549 31.5391ZM77.2625 31.6353L77.4552 33.626C77.6995 33.6023 77.9374 33.5339 78.157 33.4241L77.2625 31.6353ZM77.014 31.6593L76.5623 33.6076C76.7734 33.6566 76.991 33.6709 77.2067 33.65L77.014 31.6593ZM76.4609 31.5311L76.9127 29.5828C76.7054 29.5347 76.4918 29.52 76.2799 29.5393L76.4609 31.5311ZM76.1964 31.5551L76.0153 29.5633C75.5145 29.6089 75.0493 29.8414 74.7122 30.2145L76.1964 31.5551ZM75.9719 31.8036L74.4877 30.463C74.2538 30.722 74.0917 31.0377 74.0176 31.3787L75.9719 31.8036ZM75.8517 32.3567L73.8974 31.9318C73.8656 32.0779 73.8503 32.2271 73.8518 32.3765L75.8517 32.3567ZM75.8597 33.1663L73.8598 33.1861C73.8611 33.3199 73.8759 33.4531 73.9038 33.5839L75.8597 33.1663ZM76.012 33.8798L74.0561 34.2973C74.1482 34.7289 74.3805 35.1178 74.7167 35.4036L76.012 33.8798ZM76.3327 34.1523L75.0374 35.6762C75.7829 36.3099 76.8776 36.3111 77.6245 35.6791L76.3327 34.1523ZM76.4369 34.0641L77.7288 35.5909C77.9172 35.4315 78.0745 35.2385 78.1927 35.0218L76.4369 34.0641ZM76.5812 33.7996L76.4813 31.8021C75.786 31.8369 75.1587 32.2307 74.8254 32.8419L76.5812 33.7996ZM76.7415 33.7916L78.671 33.2653C78.4239 32.3593 77.5796 31.7472 76.6416 31.7941L76.7415 33.7916ZM76.7655 33.8798L74.836 34.406C74.875 34.549 74.9298 34.6872 74.9993 34.8181L76.7655 33.8798ZM77.0381 34.3928L79.0153 34.0919C78.9814 33.8691 78.9101 33.6535 78.8043 33.4545L77.0381 34.3928ZM77.1503 35.1303L75.1731 35.4311C75.1874 35.5251 75.2084 35.618 75.2359 35.709L77.1503 35.1303ZM77.2545 35.4749L75.3401 36.0537C75.4087 36.2807 75.5171 36.4937 75.6603 36.6827L77.2545 35.4749ZM77.4549 35.7395L75.8607 36.9472C75.9886 37.116 76.1424 37.2634 76.3165 37.3839L77.4549 35.7395ZM78.0802 36.1723L76.9417 37.8167C77.0445 37.8879 77.1537 37.9492 77.2679 38L78.0802 36.1723ZM78.2244 36.2365L77.4122 38.0641C77.5082 38.1068 77.6075 38.1419 77.7091 38.1689L78.2244 36.2365ZM78.4649 36.3006L79.8258 34.835C79.5863 34.6126 79.296 34.4523 78.9802 34.3681L78.4649 36.3006ZM79.0261 36.8216L77.6652 38.2872C77.8354 38.4454 78.032 38.5726 78.2459 38.6632L79.0261 36.8216ZM80.1804 37.3106L81.2128 35.5977C81.1318 35.5489 81.0475 35.5059 80.9605 35.469L80.1804 37.3106ZM80.7655 37.6633L82.5986 36.8634C82.4328 36.4835 82.153 36.1644 81.798 35.9504L80.7655 37.6633ZM80.9579 38.1042L79.1248 38.9041C79.5546 39.889 80.6859 40.3583 81.6867 39.9667L80.9579 38.1042ZM81.1423 38.0321L82.2517 36.3679C81.7081 36.0056 81.0219 35.9315 80.4135 36.1696L81.1423 38.0321ZM81.2385 38.0962L82.9624 37.0822C82.8093 36.8219 82.5992 36.5996 82.3478 36.4321L81.2385 38.0962ZM81.3186 38.2325L79.5947 39.2464C79.6588 39.3553 79.7329 39.4578 79.8163 39.5527L81.3186 38.2325ZM81.5511 38.497L83.2259 37.4037C83.1739 37.3241 83.1162 37.2482 83.0534 37.1768L81.5511 38.497ZM81.9279 39.0742L83.838 38.4813C83.7831 38.3044 83.7039 38.136 83.6026 37.9809L81.9279 39.0742ZM82 39.3066V41.3066C82.6355 41.3066 83.2333 41.0045 83.6102 40.4929C83.9872 39.9812 84.0985 39.3208 83.9101 38.7138L82 39.3066ZM81.8637 39.3066V37.3066C81.2614 37.3066 80.6912 37.578 80.3115 38.0455L81.8637 39.3066ZM81.7595 39.4349L80.2073 38.1737C79.9606 38.4773 79.8084 38.8466 79.7694 39.2358L81.7595 39.4349ZM81.7194 39.8357L83.5501 40.6411C83.6348 40.4486 83.6886 40.244 83.7095 40.0347L81.7194 39.8357ZM81.6313 40.0361L83.0918 41.4024C83.2459 41.2376 83.3711 41.048 83.4619 40.8415L81.6313 40.0361ZM81.3988 40.2846L79.9383 38.9182C79.7122 39.1599 79.5496 39.4539 79.4651 39.7738L81.3988 40.2846ZM81.2866 40.7094L79.3529 40.1987C79.3289 40.2897 79.3113 40.3822 79.3003 40.4757L81.2866 40.7094ZM81.2224 41.2545L83.1824 41.6526C83.1935 41.5982 83.2023 41.5434 83.2087 41.4882L81.2224 41.2545ZM81.1182 41.7675L82.7567 42.9145C82.9141 42.6896 83.0236 42.4347 83.0782 42.1656L81.1182 41.7675ZM80.8938 42.0882L81.2226 44.061C81.7523 43.9727 82.2243 43.6751 82.5322 43.2351L80.8938 42.0882ZM80.6533 42.1283L80.1038 44.0513C80.3893 44.1329 80.6893 44.1498 80.9821 44.101L80.6533 42.1283ZM80.4289 42.0641L80.9783 40.1411C80.8659 40.109 80.7509 40.0868 80.6347 40.0747L80.4289 42.0641ZM80.1964 42.0401L80.4022 40.0507C79.9496 40.0039 79.4945 40.1128 79.1122 40.3595L80.1964 42.0401ZM79.9479 42.2004L78.8636 40.5198C78.5767 40.705 78.3419 40.9605 78.1816 41.2621L79.9479 42.2004ZM79.8116 42.4569L78.0454 41.5186C77.981 41.6399 77.9292 41.7674 77.8909 41.8993L79.8116 42.4569ZM79.7395 42.7054L81.44 43.7581C81.5355 43.6038 81.6096 43.4373 81.6602 43.263L79.7395 42.7054ZM79.6353 42.8737L79.6977 44.8728C80.3679 44.8518 80.9829 44.4965 81.3358 43.9265L79.6353 42.8737ZM79.3788 42.8818L78.3591 44.6023C78.6861 44.7961 79.0614 44.8927 79.4412 44.8808L79.3788 42.8818ZM79.1623 42.7535L77.5387 43.9214C77.6998 44.1453 77.9054 44.3335 78.1427 44.4741L79.1623 42.7535ZM78.8337 42.2966L80.4573 41.1287C80.3604 40.994 80.2471 40.8719 80.1201 40.7652L78.8337 42.2966ZM78.6333 42.1283L79.9197 40.5969C79.7249 40.4333 79.5008 40.3083 79.2593 40.2287L78.6333 42.1283ZM77.9279 41.8958L76.8827 43.601C77.0145 43.6817 77.1551 43.7469 77.3019 43.7953L77.9279 41.8958ZM77.6794 41.7435L76.334 43.2234C76.4268 43.3077 76.5273 43.3832 76.6342 43.4487L77.6794 41.7435ZM76.9739 41.1022L75.4094 42.3481C75.4761 42.4318 75.5494 42.5101 75.6286 42.5821L76.9739 41.1022ZM76.6293 40.6693L78.1938 39.4235C78.1381 39.3535 78.0777 39.2873 78.0131 39.2254L76.6293 40.6693ZM76.4369 40.485L77.8207 39.041C77.629 38.8573 77.4026 38.7136 77.1548 38.6183L76.4369 40.485ZM76.2285 40.4048L76.9464 38.5381C76.7117 38.4478 76.4621 38.4026 76.2106 38.4049L76.2285 40.4048ZM75.3307 40.4128L75.3128 38.4129C75.16 38.4143 75.0079 38.4331 74.8595 38.4691L75.3307 40.4128ZM75.0661 40.477L74.5949 38.5332C74.3814 38.585 74.1778 38.6716 73.9924 38.7896L75.0661 40.477ZM74.4489 40.8697L75.1374 42.7475C75.2723 42.698 75.4015 42.6342 75.5227 42.5571L74.4489 40.8697ZM74.2084 40.9579L74.3745 42.951C74.553 42.9361 74.7287 42.8973 74.8969 42.8357L74.2084 40.9579ZM73.9198 40.982L73.6959 42.9694C73.8254 42.984 73.956 42.9859 74.0859 42.9751L73.9198 40.982ZM73.3507 40.9178L72.6624 42.7957C72.8123 42.8506 72.9682 42.8874 73.1268 42.9053L73.3507 40.9178ZM71.5792 40.2685L70.5429 41.9792C70.6532 42.046 70.7698 42.102 70.8909 42.1464L71.5792 40.2685ZM70.7455 39.7635L69.4337 41.2733C69.5197 41.3479 69.6119 41.4151 69.7092 41.4741L70.7455 39.7635ZM70.2565 39.3387L68.5655 40.4067C68.6697 40.5716 68.7975 40.7205 68.9448 40.8484L70.2565 39.3387ZM69.9679 38.8818L68.4099 37.6277C67.8738 38.2938 67.8204 39.2269 68.277 39.9498L69.9679 38.8818ZM70.2325 38.5531L69.5668 36.6671C69.2164 36.7908 68.9074 37.0096 68.6745 37.2991L70.2325 38.5531ZM70.505 38.4569L71.1707 40.3429C71.2713 40.3074 71.369 40.2638 71.4627 40.2127L70.505 38.4569ZM70.6814 38.3607L71.6391 40.1165C72.3868 39.7087 72.7942 38.872 72.6541 38.0318L70.6814 38.3607ZM70.6653 38.2645L72.6381 37.9356C72.5232 37.2464 72.0569 36.6671 71.4081 36.4076L70.6653 38.2645ZM70.3848 38.1523L71.1275 36.2953C71.0178 36.2515 70.9044 36.2174 70.7887 36.1935L70.3848 38.1523ZM69.6072 37.992L68.8764 39.8537C68.9824 39.8953 69.0918 39.9278 69.2033 39.9508L69.6072 37.992ZM67.8918 37.3186L66.508 38.7626C66.6963 38.9431 66.9182 39.085 67.161 39.1803L67.8918 37.3186ZM67.507 36.9499L66.0056 38.2712C66.043 38.3137 66.0823 38.3547 66.1232 38.3939L67.507 36.9499ZM67.3307 36.7495L68.8321 35.4282C68.5345 35.0901 68.1316 34.8623 67.6884 34.7818L67.3307 36.7495ZM67.1543 36.7174L67.5121 34.7497C67.1978 34.6925 66.8744 34.7115 66.5689 34.805L67.1543 36.7174ZM66.7615 36.8377L66.9605 38.8278C67.0916 38.8146 67.221 38.7886 67.347 38.7501L66.7615 36.8377ZM66.521 36.8617L66.0962 38.8161C66.301 38.8606 66.5115 38.8727 66.72 38.8518L66.521 36.8617ZM66.3367 36.8216L65.4225 38.6005C65.5773 38.68 65.7418 38.739 65.9118 38.776L66.3367 36.8216ZM65.7595 36.525L64.8389 38.3006L64.8454 38.3039L65.7595 36.525ZM65.5431 36.4128L66.4637 34.6373C66.2159 34.5088 65.9439 34.4336 65.6653 34.4166L65.5431 36.4128ZM65.1503 36.3888L65.2725 34.3925C65.0044 34.3761 64.7358 34.4139 64.4826 34.5035L65.1503 36.3888ZM64.7655 36.5251L64.0978 34.6398C63.8752 34.7186 63.6684 34.8363 63.4868 34.9872L64.7655 36.5251ZM61.8156 38.978L62.8585 40.6845C62.9411 40.634 63.0199 40.5776 63.0944 40.5158L61.8156 38.978ZM61.6713 39.0661L60.6284 37.3596C60.5199 37.4259 60.4179 37.5025 60.3238 37.5882L61.6713 39.0661ZM61.3988 39.3146L62.5698 40.936C62.6313 40.8915 62.6902 40.8437 62.7463 40.7925L61.3988 39.3146ZM61.2545 39.4188L61.2902 41.4185C61.6984 41.4112 62.0946 41.2792 62.4255 41.0402L61.2545 39.4188ZM60.8056 39.4269L60.5036 41.4039C60.6153 41.421 60.7283 41.4286 60.8413 41.4265L60.8056 39.4269ZM59.6513 39.2505L59.9534 37.2734C59.3243 37.1773 58.6871 37.3863 58.2371 37.8363L59.6513 39.2505ZM59.4188 39.483L58.0046 38.0687C57.411 38.6624 57.2513 39.5637 57.6048 40.3252L59.4188 39.483ZM59.523 39.7074L57.709 40.5496C57.9017 40.9647 58.2309 41.3011 58.6417 41.5027L59.523 39.7074ZM59.9639 39.9238L61.5814 38.7475C61.39 38.4844 61.1374 38.2719 60.8453 38.1285L59.9639 39.9238ZM60.0922 40.1002L61.7197 41.2627C62.22 40.5622 62.216 39.6201 61.7097 38.9239L60.0922 40.1002ZM59.9719 40.2685L60.2263 42.2523C60.7783 42.1815 61.2759 41.8839 61.5994 41.431L59.9719 40.2685ZM59.6593 40.3086L59.6226 42.3083C59.7199 42.3101 59.8172 42.3047 59.9137 42.2924L59.6593 40.3086ZM57.9118 40.2766L57.1639 42.1314C57.3902 42.2227 57.6312 42.2717 57.8751 42.2762L57.9118 40.2766ZM57.4148 40.0762L58.1628 38.2213C58.0075 38.1587 57.8451 38.1158 57.6791 38.0937L57.4148 40.0762ZM57.1743 40.0441L57.4387 38.0616C57.0588 38.011 56.6724 38.0705 56.3255 38.2332L57.1743 40.0441ZM56.9178 40.1643L56.069 38.3534C55.7762 38.4906 55.5211 38.6968 55.3255 38.9542L56.9178 40.1643ZM56.7655 40.3647L55.1732 39.1546C55.1177 39.2276 55.0673 39.3043 55.0224 39.3842L56.7655 40.3647ZM56.6212 40.6212L57.9285 42.1349C58.1035 41.9837 58.251 41.8033 58.3644 41.6018L56.6212 40.6212ZM56.4449 40.7735L55.8872 42.6942C56.5377 42.8831 57.2395 42.7299 57.7521 42.2872L56.4449 40.7735ZM56.1964 40.7014L54.3524 41.4759C54.5862 42.0325 55.059 42.4538 55.6387 42.6221L56.1964 40.7014ZM56.0281 40.3006L57.872 39.5261C57.5425 38.7416 56.7526 38.2514 55.9033 38.3045L56.0281 40.3006ZM55.8998 40.3086L55.7751 38.3125C55.2802 38.3434 54.8145 38.5571 54.4682 38.912L55.8998 40.3086ZM55.5792 40.6373L56.1144 42.5643C56.4548 42.4698 56.764 42.2868 57.0107 42.0339L55.5792 40.6373ZM55.2906 40.7174L55.1696 42.7138C55.3907 42.7272 55.6124 42.7038 55.8259 42.6445L55.2906 40.7174ZM55.0261 40.7014L54.3426 42.581C54.5235 42.6468 54.7129 42.6861 54.9051 42.6977L55.0261 40.7014ZM54.7615 40.6052L53.723 42.3144C53.8355 42.3828 53.9544 42.4398 54.078 42.4848L54.7615 40.6052ZM54.1283 40.2204L55.1668 38.5112C54.9144 38.3579 54.6313 38.2623 54.3376 38.2314L54.1283 40.2204ZM53.976 40.2044L54.1853 38.2154C53.9253 38.188 53.6624 38.2119 53.4116 38.2857L53.976 40.2044ZM53.8397 40.2445L53.2753 38.3258C52.9913 38.4093 52.7294 38.5548 52.5085 38.7519L53.8397 40.2445ZM53.5431 40.509L53.881 42.4803C54.2504 42.4169 54.5946 42.2511 54.8743 42.0016L53.5431 40.509ZM53.2625 40.5571L52.5079 42.4093C52.8538 42.5502 53.2323 42.5915 53.6004 42.5284L53.2625 40.5571ZM53.0461 40.4689L51.9053 42.1117C52.026 42.1955 52.1555 42.2657 52.2915 42.3211L53.0461 40.4689ZM52.4689 40.0681L53.6097 38.4254C53.4925 38.344 53.3668 38.2753 53.235 38.2207L52.4689 40.0681ZM52.1403 39.9319L52.9063 38.0844C52.6246 37.9676 52.3199 37.9167 52.0155 37.9358L52.1403 39.9319ZM52.012 39.9399L51.8872 37.9438C51.5174 37.9669 51.1614 38.0923 50.8587 38.3059L52.012 39.9399ZM51.8758 40.0361L50.7224 38.4021C50.2801 38.7143 49.9833 39.1925 49.8997 39.7273L51.8758 40.0361ZM51.8357 40.2926L53.6789 41.0687C53.742 40.9189 53.7866 40.762 53.8117 40.6013L51.8357 40.2926ZM51.7715 40.4449L53.1858 41.8591C53.3687 41.6762 53.5144 41.4595 53.6148 41.221L51.7715 40.4449ZM51.5872 40.6293L52.5533 42.3804C52.7178 42.2897 52.8686 42.1763 53.0014 42.0435L51.5872 40.6293ZM51.3547 40.7575L51.7233 42.7233C51.9326 42.684 52.1344 42.6116 52.3209 42.5087L51.3547 40.7575ZM51.0982 40.8056L50.5488 42.7287C50.8473 42.814 51.1616 42.8286 51.4668 42.7714L51.0982 40.8056ZM50.5932 40.6613L51.1426 38.7383C50.8974 38.6682 50.6411 38.6457 50.3874 38.6719L50.5932 40.6613ZM50.3607 40.6854L50.1549 38.696C49.9424 38.718 49.7348 38.7739 49.54 38.8615L50.3607 40.6854ZM49.8798 40.9018L50.3915 42.8352C50.4973 42.8072 50.6007 42.7706 50.7005 42.7257L49.8798 40.9018ZM49.6072 40.9739L50.0784 42.9176C50.092 42.9144 50.1055 42.9109 50.119 42.9074L49.6072 40.9739ZM49.3427 41.0381L49.3862 43.0376C49.5303 43.0345 49.6738 43.0158 49.8139 42.9818L49.3427 41.0381ZM48.2365 41.0621L48.193 39.0626C47.9407 39.0681 47.6916 39.1213 47.4591 39.2194L48.2365 41.0621ZM47.7234 41.2786L46.9461 39.4358C46.7462 39.5202 46.5613 39.6365 46.3988 39.7802L47.7234 41.2786ZM47.1703 41.7675L47.935 43.6156C48.1398 43.5309 48.329 43.4127 48.495 43.2659L47.1703 41.7675ZM46.9379 41.8637L47.0995 43.8572C47.3069 43.8404 47.5103 43.7913 47.7026 43.7118L46.9379 41.8637ZM46.6413 41.8878L46.363 43.8683C46.5087 43.8888 46.6563 43.8931 46.8029 43.8812L46.6413 41.8878ZM44.7014 41.6152L44.9797 39.6347C44.8668 39.6188 44.7528 39.6126 44.6389 39.6162L44.7014 41.6152ZM44.1884 41.6313L44.1259 39.6322C43.8854 39.6398 43.6482 39.6906 43.4257 39.7824L44.1884 41.6313ZM43.5471 41.8958L44.0625 43.8283C44.1466 43.8058 44.2292 43.7779 44.3097 43.7447L43.5471 41.8958ZM43.4269 41.9279L43.1536 43.9091C43.4171 43.9454 43.6852 43.9289 43.9422 43.8603L43.4269 41.9279ZM43.1944 41.8958L41.2934 41.2743C41.1092 41.8377 41.1844 42.4537 41.4987 42.9563C41.813 43.4588 42.3339 43.796 42.9211 43.877L43.1944 41.8958ZM43.3307 41.479L45.2317 42.1004C45.3859 41.6286 45.3592 41.1163 45.1567 40.6631L43.3307 41.479ZM43.1623 41.1022L44.9883 40.2863C44.8747 40.0319 44.7091 39.8041 44.5023 39.6174L43.1623 41.1022ZM42.8337 40.8056L44.1736 39.3208C44.0776 39.2342 43.9735 39.1571 43.8626 39.0906L42.8337 40.8056ZM42.513 40.6132L43.542 38.8982C43.3871 38.8053 43.2203 38.7338 43.0462 38.6856L42.513 40.6132ZM42.1363 40.509L42.6695 38.5814C42.4508 38.5209 42.2234 38.4981 41.9971 38.5139L42.1363 40.509ZM41.7916 40.5331L41.6524 38.5379C41.5141 38.5476 41.3773 38.5715 41.244 38.6095L41.7916 40.5331ZM40.6934 40.8457L39.517 42.4632C40.0141 42.8247 40.6498 42.9376 41.241 42.7693L40.6934 40.8457ZM40.517 40.7174L38.6586 41.4566C38.7984 41.8079 39.0349 42.1125 39.3407 42.3349L40.517 40.7174ZM40.2365 40.012L42.0949 39.2729C42.0098 39.059 41.8884 38.8614 41.7361 38.6888L40.2365 40.012ZM39.996 39.7395L41.4957 38.4162C41.1768 38.0548 40.7381 37.8207 40.2603 37.757L39.996 39.7395ZM39.7555 39.7074L40.0198 37.725C39.8523 37.7026 39.6826 37.7016 39.5149 37.7219L39.7555 39.7074ZM39.491 39.7395L38.8728 41.6415C39.1496 41.7315 39.4427 41.76 39.7316 41.7249L39.491 39.7395ZM39.1703 39.6353L38.2671 37.8508C37.5445 38.2166 37.1139 38.982 37.1763 39.7895C37.2387 40.5969 37.782 41.287 38.5522 41.5373L39.1703 39.6353ZM39.8196 39.3066L40.7229 41.091C40.8818 41.0106 41.0293 40.9092 41.1615 40.7897L39.8196 39.3066ZM39.988 39.1543L41.3298 40.6374C41.4444 40.5337 41.5466 40.417 41.6344 40.2898L39.988 39.1543ZM40.1483 38.9218L41.7947 40.0573C42.1021 39.6117 42.2156 39.0604 42.1095 38.5296L40.1483 38.9218ZM40.1323 38.8417L42.0934 38.4494C41.9266 37.6156 41.2508 36.9784 40.4087 36.8609L40.1323 38.8417ZM39.7876 38.7936L38.9247 40.5979C39.1099 40.6865 39.3078 40.746 39.5112 40.7744L39.7876 38.7936ZM39.4188 38.6172L38.1018 40.1224C38.2389 40.2423 38.3916 40.3429 38.5559 40.4215L39.4188 38.6172ZM38.8417 38.1122L40.1587 36.6071C40.1004 36.5561 40.0392 36.5085 39.9754 36.4646L38.8417 38.1122ZM37.9679 37.511L36.4936 38.8625C36.5956 38.9737 36.7099 39.0731 36.8342 39.1587L37.9679 37.511ZM37.7916 37.3186L36.0199 38.2467C36.1003 38.4001 36.2002 38.5424 36.3173 38.6701L37.7916 37.3186ZM37.4389 36.6453L39.2105 35.7173C39.0744 35.4573 38.8827 35.2305 38.649 35.053L37.4389 36.6453ZM37.2385 36.493L35.7371 37.8143C35.8249 37.9141 35.9225 38.0049 36.0283 38.0853L37.2385 36.493ZM37.0621 36.2926L38.5635 34.9713C38.333 34.7093 38.0378 34.5122 37.7075 34.3996L37.0621 36.2926ZM36.7094 36.1723L35.7017 37.8999C35.8167 37.967 35.9381 38.0224 36.0641 38.0654L36.7094 36.1723ZM36.6132 36.1162L34.8574 37.074C35.032 37.3939 35.2907 37.6601 35.6055 37.8438L36.6132 36.1162ZM36.517 35.9399L34.6122 36.5494C34.6507 36.6699 34.7007 36.7865 34.7613 36.8976L36.517 35.9399ZM36.4529 35.7395L38.3577 35.1299C38.2777 34.8799 38.1493 34.648 37.9797 34.4476L36.4529 35.7395ZM36.3647 35.6353L37.8915 34.3434C37.2408 33.5743 36.1195 33.4093 35.2748 33.9584L36.3647 35.6353ZM36.2044 35.7395L35.1144 34.0626C34.9544 34.1666 34.8101 34.293 34.6859 34.4379L36.2044 35.7395ZM35.9158 36.0762L35.3038 37.9802C36.0705 38.2267 36.9102 37.9892 37.4344 37.3777L35.9158 36.0762ZM35.6914 36.004L34.2309 37.3703C34.4633 37.6188 34.7554 37.8039 35.0794 37.9081L35.6914 36.004ZM35.4589 35.7555L36.9194 34.3892C36.7943 34.2554 36.6513 34.1394 36.4945 34.0445L35.4589 35.7555ZM35.1543 35.5711L33.4774 34.4812C33.1823 34.9353 33.0839 35.4896 33.2048 36.0175C33.3256 36.5454 33.6554 37.0017 34.1187 37.2821L35.1543 35.5711ZM35.2585 35.4108L33.9527 33.896C33.8095 34.0194 33.6846 34.1624 33.5816 34.3209L35.2585 35.4108ZM35.491 35.2104L36.7968 36.7253C36.873 36.6596 36.9441 36.5883 37.0095 36.512L35.491 35.2104ZM35.5872 35.0982L37.1057 36.3998C37.3113 36.1599 37.4572 35.8746 37.5313 35.5675L35.5872 35.0982ZM35.6994 34.6333L34.0353 33.5239C33.9051 33.7192 33.8103 33.9358 33.7552 34.164L35.6994 34.6333ZM35.7956 34.489L37.4597 35.5984C37.7779 35.1211 37.8758 34.5301 37.7286 33.9756C37.5813 33.4212 37.2031 32.9567 36.69 32.7001L35.7956 34.489ZM35.5711 34.3768L36.4656 32.5879C36.2397 32.4749 35.9944 32.4058 35.7428 32.3841L35.5711 34.3768ZM33.8958 34.2325L34.0674 32.2398C33.9573 32.2304 33.8465 32.23 33.7363 32.2388L33.8958 34.2325ZM33.2946 34.2806L33.1351 32.2869C32.9684 32.3003 32.8041 32.3344 32.6459 32.3887L33.2946 34.2806ZM33.014 34.3768L32.3654 32.4849C32.1675 32.5527 31.9814 32.6512 31.814 32.7767L33.014 34.3768ZM32.7575 34.5691L31.5575 32.9691C31.2891 33.1705 31.0756 33.4361 30.9368 33.7415L32.7575 34.5691ZM32.6373 34.8337L30.8165 34.0061C30.746 34.1613 30.6955 34.325 30.6665 34.493L32.6373 34.8337ZM32.5251 35.483L34.3458 36.3106C34.4164 36.1553 34.4668 35.9917 34.4958 35.8236L32.5251 35.483ZM32.4048 35.7475L33.84 37.1404C34 36.9755 34.1304 36.7843 34.2255 36.5751L32.4048 35.7475ZM32.1403 36.02L30.7051 34.6271C30.614 34.721 30.5322 34.8237 30.4611 34.9335L32.1403 36.02ZM31.7876 36.5651L32.8718 38.2457C33.11 38.0921 33.3128 37.8896 33.4667 37.6516L31.7876 36.5651ZM31.5391 36.7255L31.6442 38.7227C31.9926 38.7044 32.3302 38.5952 32.6233 38.406L31.5391 36.7255ZM31.2345 36.7415L30.5065 38.6043C30.7715 38.7078 31.0555 38.7537 31.3396 38.7387L31.2345 36.7415ZM29.1423 35.9238L29.8703 34.061C29.6039 33.957 29.3184 33.9112 29.0329 33.9268L29.1423 35.9238ZM28.5571 35.9559L28.3863 37.9486C28.4795 37.9566 28.5731 37.958 28.6665 37.9529L28.5571 35.9559ZM28.2766 35.9319L26.9224 37.4037C27.2483 37.7036 27.6645 37.8867 28.1058 37.9246L28.2766 35.9319ZM28.0762 35.7475L29.4303 34.2756C29.3372 34.19 29.2363 34.1135 29.1288 34.047L28.0762 35.7475ZM27.9078 35.6433L28.9605 33.9427C28.6694 33.7625 28.3368 33.6601 27.9947 33.6452L27.9078 35.6433ZM27.7234 35.6353L27.8103 33.6372C27.5881 33.6275 27.3657 33.655 27.1525 33.7185L27.7234 35.6353ZM27.3467 35.7475L26.4868 37.5532C26.9336 37.766 27.4434 37.8055 27.9177 37.6643L27.3467 35.7475ZM27.1784 35.6673L28.0382 33.8616C27.8838 33.7881 27.7206 33.7347 27.5526 33.7027L27.1784 35.6673ZM27.01 35.6353L27.3843 33.6706C27.1676 33.6293 26.9456 33.6242 26.7272 33.6554L27.01 35.6353ZM26.8417 35.6593L26.5588 33.6794C26.3335 33.7116 26.1153 33.782 25.9137 33.8877L26.8417 35.6593ZM26.6733 35.7475L27.2514 37.6621C27.3723 37.6256 27.4895 37.5778 27.6014 37.5192L26.6733 35.7475ZM26.2485 35.8758L25.527 37.7411C25.9426 37.9018 26.3999 37.9192 26.8265 37.7904L26.2485 35.8758ZM25.3988 35.5471L26.1203 33.6818C25.6395 33.4958 25.1054 33.5027 24.6296 33.7009L25.3988 35.5471ZM24.9178 35.7475L24.1486 33.9013C24.0097 33.9592 23.8778 34.0326 23.7553 34.12L24.9178 35.7475ZM24.7495 35.8677L23.587 34.2403C23.3973 34.3758 23.2327 34.5435 23.1007 34.7357L24.7495 35.8677ZM24.3808 36.4048L25.6906 37.9162C25.8193 37.8047 25.9332 37.6772 26.0296 37.5368L24.3808 36.4048ZM23.8998 36.8216L24.8921 38.5581C25.005 38.4936 25.1114 38.4182 25.2097 38.333L23.8998 36.8216ZM23.7876 36.8858L22.9753 38.7134C23.557 38.972 24.2271 38.9381 24.7799 38.6222L23.7876 36.8858ZM23.6433 36.8216L22.2795 38.2846C22.4419 38.4359 22.6282 38.5591 22.831 38.6493L23.6433 36.8216ZM23.1703 36.3808L24.5341 34.9178C24.3317 34.7291 24.0922 34.5845 23.831 34.493L23.1703 36.3808ZM23.01 36.3246L23.6707 34.4369C23.5299 34.3877 23.3841 34.3543 23.2358 34.3374L23.01 36.3246ZM22.6573 36.2846L21.8958 38.1339C22.0672 38.2045 22.2474 38.2509 22.4315 38.2718L22.6573 36.2846ZM22.521 36.2285L20.7051 37.0666C20.9165 37.5246 21.2931 37.8858 21.7596 38.0778L22.521 36.2285ZM22.4729 36.1242L20.4771 35.9955C20.4557 36.3277 20.5175 36.6601 20.657 36.9623L22.4729 36.1242ZM22.489 35.8758L24.4848 36.0045C24.534 35.2421 24.1446 34.5183 23.4813 34.1393L22.489 35.8758ZM22.3768 35.8116L23.369 34.0751C22.8087 33.7549 22.1282 33.7248 21.5418 33.9943L22.3768 35.8116ZM22.0802 35.9479L22.2573 37.94C22.4849 37.9198 22.7075 37.8607 22.9152 37.7652L22.0802 35.9479ZM21.7194 35.98L21.2856 37.9323C21.486 37.9769 21.692 37.9903 21.8965 37.9721L21.7194 35.98ZM21.5752 35.9479L20.7985 37.7909C20.9093 37.8376 21.024 37.8742 21.1413 37.9003L21.5752 35.9479ZM20.3006 35.4108L18.5532 34.4378C18.2767 34.9345 18.2246 35.5253 18.4098 36.0626C18.595 36.6 19.0002 37.0332 19.524 37.2539L20.3006 35.4108ZM21.0862 34L19.4699 32.822C19.4221 32.8876 19.3783 32.9561 19.3388 33.027L21.0862 34ZM21.4309 33.5271L20.3344 31.8544C20.1327 31.9866 19.9566 32.1542 19.8146 32.3491L21.4309 33.5271ZM22.1523 33.0541L23.2488 34.7267C23.5834 34.5074 23.8446 34.1927 23.9985 33.8233L22.1523 33.0541ZM22.3527 32.5731L20.6443 31.5333C20.5916 31.6199 20.5455 31.7103 20.5066 31.8039L22.3527 32.5731ZM22.9138 31.6513L24.6222 32.6912C24.7767 32.4375 24.8726 32.1526 24.9032 31.8571L22.9138 31.6513ZM22.9619 31.1864L21.1943 30.2506C21.0743 30.4774 20.999 30.7253 20.9725 30.9806L22.9619 31.1864ZM23.0341 31.0501L21.4001 29.8967C21.351 29.9663 21.3064 30.039 21.2665 30.1143L23.0341 31.0501ZM23.2265 30.7776L24.8604 31.9309C24.9699 31.7758 25.0568 31.6058 25.1183 31.4262L23.2265 30.7776ZM23.3226 30.497L25.2145 31.1456C25.2861 30.9369 25.3226 30.7177 25.3226 30.497H23.3226ZM23.3226 29.1984H25.3226V29.1983L23.3226 29.1984ZM23.3226 29.1343L25.3226 29.1342C25.3226 29.0396 25.3159 28.9451 25.3025 28.8514L23.3226 29.1343ZM23.1784 28.1242L21.1826 28.2544C21.1859 28.3055 21.1912 28.3564 21.1985 28.4071L23.1784 28.1242ZM23.1543 27.7555L25.1501 27.6254C25.1434 27.5232 25.1289 27.4216 25.1067 27.3216L23.1543 27.7555ZM23.1062 27.5391L25.0586 27.1052C25.0152 26.91 24.9428 26.7223 24.8437 26.5485L23.1062 27.5391ZM22.6172 26.6814L20.8794 27.6713L20.8797 27.6719L22.6172 26.6814ZM22.2565 26.0481L23.9944 25.0582C23.9005 24.8934 23.7836 24.7428 23.6473 24.6109L22.2565 26.0481ZM22.008 25.8076L20.0411 26.1699C20.1165 26.5795 20.3179 26.9552 20.6172 27.2448L22.008 25.8076ZM21.9519 25.503L19.9538 25.5899C19.9578 25.6823 19.9682 25.7743 19.985 25.8653L21.9519 25.503ZM21.9279 24.9499L23.926 24.863C23.9234 24.8046 23.9183 24.7464 23.9107 24.6884L21.9279 24.9499ZM21.8317 24.2204L23.8145 23.959C23.8016 23.8613 23.7816 23.7648 23.7544 23.6701L21.8317 24.2204ZM21.1984 22.008L23.1212 21.4577C23.0741 21.2932 23.0062 21.1355 22.919 20.9884L21.1984 22.008ZM21.0701 21.7916L22.7907 20.772C22.7055 20.6281 22.6026 20.4956 22.4844 20.3774L21.0701 21.7916ZM20.7495 21.4709L18.8 21.9177C18.884 22.2841 19.0695 22.6194 19.3353 22.8852L20.7495 21.4709ZM18.0848 17.6078L18.686 21.3994L22.6366 20.773L22.0354 16.9814L18.0848 17.6078ZM17.9496 17.2715L18.1581 17.9128L21.9622 16.6764L21.7538 16.0351L17.9496 17.2715ZM17.8012 17.0839L18.1058 17.6289L21.5976 15.6777L21.293 15.1326L17.8012 17.0839ZM17.6858 17.0411L18.0786 17.4659L21.0156 14.7505L20.6229 14.3257L17.6858 17.0411ZM17.67 17.1375L18.159 17.4181L20.1496 13.9486L19.6607 13.6681L17.67 17.1375ZM17.3941 17.2008L18.2999 17.3691L19.0308 13.4365L18.1249 13.2681L17.3941 17.2008ZM16.5819 16.8673L16.7823 16.9795L18.7367 13.4895L18.5363 13.3772L16.5819 16.8673ZM16.0153 16.4202L16.2077 16.5965L18.9106 13.6479L18.7182 13.4716L16.0153 16.4202ZM16.1069 16.5339L16.3954 16.6942L18.338 13.1976L18.0494 13.0373L16.1069 16.5339ZM16.0302 16.5188L16.3267 16.6391L17.8296 12.9321L17.533 12.8119L16.0302 16.5188ZM16.2768 16.6157L16.5172 16.6478L17.0459 12.6829L16.8054 12.6508L16.2768 16.6157ZM16.9691 16.5921L17.1054 16.552L15.9768 12.7145L15.8405 12.7546L16.9691 16.5921ZM17.2344 16.5153L17.4749 16.363L15.3347 12.9837L15.0942 13.136L17.2344 16.5153ZM16.3239 16.8252L16.4763 16.8012L15.8524 12.8501L15.7001 12.8742L16.3239 16.8252ZM14.9033 16.5207L15.0315 16.5929L16.9925 13.1065L16.8643 13.0344L14.9033 16.5207ZM13.6647 15.0384L14.2098 15.8721L17.5577 13.6831L17.0126 12.8494L13.6647 15.0384ZM13.1362 13.4668L13.4088 14.4688L17.2686 13.419L16.996 12.417L13.1362 13.4668ZM12.8346 13.0719L13.3316 13.9376L16.8006 11.9461L16.3036 11.0804L12.8346 13.0719ZM12.5321 12.4029L12.7325 12.8678L16.4058 11.2845L16.2054 10.8196L12.5321 12.4029ZM14.1262 13.6185L14.4228 13.6105L14.3147 9.61195L14.0181 9.61997L14.1262 13.6185ZM14.4057 13.6578L14.8787 13.4494L13.2656 9.78906L12.7927 9.99748L14.4057 13.6578ZM12.6396 13.6104L12.9362 13.7146L14.2622 9.94073L13.9656 9.83653L12.6396 13.6104ZM11.2708 12.2649L11.6235 12.81L14.9817 10.6369L14.629 10.0919L11.2708 12.2649ZM11.6933 12.7534L11.9017 12.8817L13.9981 9.47504L13.7897 9.34678L11.6933 12.7534ZM10.7434 11.1689L10.7514 11.2491L14.7316 10.8511L14.7235 10.7709L10.7434 11.1689ZM10.7182 11.4763L10.9987 11.9653L14.4682 9.9746L14.1876 9.48562L10.7182 11.4763ZM11.1234 11.9786L11.2035 12.0427L13.7023 8.91922L13.6221 8.85509L11.1234 11.9786ZM10.7672 11.9303L11.6329 12.275L13.1126 8.5587L12.2468 8.21401L10.7672 11.9303ZM10.0335 11.8842L11.2279 12.0526L11.7861 8.09172L10.5917 7.92338L10.0335 11.8842ZM9.8656 11.9326L10.4267 11.9005L10.1985 7.90706L9.6374 7.93913L9.8656 11.9326ZM9.85181 11.9723L10.2366 11.8762L9.26643 7.99559L8.88166 8.09178L9.85181 11.9723ZM9.44331 12.0359L9.5876 12.0198L9.14587 8.0443L9.00158 8.06033L9.44331 12.0359ZM8.32467 11.8413L8.46094 11.8975L9.98395 8.19874L9.84768 8.14263L8.32467 11.8413ZM7.4395 11.1737L7.67196 11.4062L10.5004 8.57777L10.2679 8.3453L7.4395 11.1737ZM7.71965 11.4191L7.896 11.5153L9.81141 8.00373L9.63506 7.90754L7.71965 11.4191ZM7.00943 10.8057L7.20983 11.0221L10.1449 8.30451L9.94448 8.08808L7.00943 10.8057ZM7.26023 11.0551L7.48468 11.1834L9.46923 7.71041L9.24478 7.58215L7.26023 11.0551ZM7.54015 11.2262L7.91691 11.2903L8.5881 7.347L8.21135 7.28287L7.54015 11.2262ZM6.04349 10.5903L7.00541 11.0552L8.74609 7.45381L7.78416 6.98888L6.04349 10.5903ZM6.25605 10.7297L6.69693 10.7778L7.13072 6.80138L6.68984 6.75328L6.25605 10.7297ZM7.73733 10.3723L8.04995 9.97155L4.89594 7.51142L4.58332 7.91222L7.73733 10.3723ZM4.58101 10.3819L4.70125 10.5102L7.61939 7.7744L7.49915 7.64614L4.58101 10.3819ZM4.00677 9.31593L4.18313 9.75681L7.89703 8.27125L7.72068 7.83037L4.00677 9.31593ZM3.95752 9.22434L4.06172 9.44078L7.66573 7.70552L7.56152 7.48908L3.95752 9.22434ZM4.07276 9.49838L4.34531 9.77093L7.17373 6.9425L6.90119 6.66995L4.07276 9.49838ZM3.71428 9.03449L3.83452 9.21084L7.13943 6.9575L7.01919 6.78114L3.71428 9.03449ZM3.43434 7.17263L3.37823 7.69367L7.35524 8.12196L7.41135 7.60092L3.43434 7.17263ZM3.37351 7.64859L3.56589 8.12955L7.2798 6.64399L7.08741 6.16303L3.37351 7.64859ZM3.24525 7.47072L3.50176 7.9116L6.95916 5.90002L6.70264 5.45914L3.24525 7.47072ZM3.21983 7.47384L3.41221 7.71432L6.53569 5.21554L6.3433 4.97506L3.21983 7.47384ZM3.54992 7.85237L3.91865 8.02872L5.64447 4.42018L5.27574 4.24383L3.54992 7.85237ZM3.19371 7.77519L3.85103 7.96757L4.97462 4.12862L4.31731 3.93624L3.19371 7.77519ZM1.93539 6.84738L2.31215 7.24016L5.19887 4.47126L4.82212 4.07848L1.93539 6.84738ZM2.3748 7.2035L2.55115 7.28366L4.20636 3.64219L4.03001 3.56203L2.3748 7.2035ZM2.33794 7.26892L2.88303 7.3571L3.52178 3.40843L2.97669 3.32025L2.33794 7.26892ZM1.49745 6.97458L1.8742 7.1349L3.44043 3.45428L3.06367 3.29396L1.49745 6.97458ZM1.60777 7.03932L1.88833 7.09543L2.67279 3.17311L2.39223 3.11699L1.60777 7.03932ZM0.111754 4.35572L0.0476259 4.6443L3.95237 5.51202L4.0165 5.22344L0.111754 4.35572ZM1.00578 1.95871L0.196163 4.07494L3.93209 5.50422L4.74171 3.38798L1.00578 1.95871ZM1.32367 1.37221L1.16335 1.63674L4.58414 3.70995L4.74446 3.44542L1.32367 1.37221ZM2.21324 0.552332L1.92467 0.744717L4.14347 4.07292L4.43205 3.88053L2.21324 0.552332ZM3.60292 0.0691419L2.80131 0.285575L3.84398 4.14729L4.64558 3.93086L3.60292 0.0691419ZM4.9499 0H4.12425V4H4.9499V0ZM8.59571 1.23418L5.65382 0.127971L4.24598 3.87203L7.18786 4.97824L8.59571 1.23418ZM8.60037 1.17625L8.12742 1.12014L7.65615 5.09228L8.12909 5.1484L8.60037 1.17625ZM8.22862 1.1309L7.85989 1.22709L8.86957 5.09756L9.23831 5.00137L8.22862 1.1309ZM8.58028 0.887083L7.80273 1.2959L9.66421 4.83636L10.4418 4.42755L8.58028 0.887083ZM9.72302 0.621451L9.29016 0.669547L9.73189 4.64508L10.1648 4.59699L9.72302 0.621451ZM11.1995 1.00507L10.8548 0.828722L9.03294 4.38971L9.37763 4.56607L11.1995 1.00507ZM12.2169 1.74809L11.5115 1.203L9.06568 4.36814L9.77109 4.91323L12.2169 1.74809ZM12.8709 1.86702L11.6525 1.44217L10.3355 5.21915L11.5539 5.644L12.8709 1.86702ZM13.6049 2.2524L13.2202 2.02795L11.2047 5.48307L11.5895 5.70752L13.6049 2.2524ZM15.4856 3.73584L13.8503 2.42121L11.3441 5.53871L12.9794 6.85334L15.4856 3.73584ZM15.106 3.45555L14.7373 3.35935L13.7276 7.22982L14.0964 7.32602L15.106 3.45555ZM15.5752 3.24055L14.3327 3.40889L14.8697 7.37267L16.1122 7.20434L15.5752 3.24055ZM16.6742 3.35733L16.2734 3.26916L15.414 7.17573L15.8148 7.26391L16.6742 3.35733ZM17.5237 3.71415L17.1389 3.52177L15.3501 7.09948L15.7348 7.29186L17.5237 3.71415ZM18.2718 4.26569L17.903 3.96108L15.3555 7.04493L15.7242 7.34954L18.2718 4.26569ZM18.2238 4.16291L17.807 3.97854L16.189 7.63669L16.6058 7.82105L18.2238 4.16291ZM17.8874 3.86109L17.0297 4.02942L17.8 7.95454L18.6577 7.78621L17.8874 3.86109ZM19.376 4.11098L19.0153 3.96669L17.5298 7.6806L17.8905 7.82489L19.376 4.11098ZM20.4144 5.03828L20.3102 4.87796L16.9564 7.05791L17.0606 7.21823L20.4144 5.03828ZM20.7381 5.71139L20.5698 5.32662L16.9052 6.92989L17.0735 7.31466L20.7381 5.71139ZM20.6821 5.57196L20.5699 5.40362L17.2417 7.62243L17.3539 7.79077L20.6821 5.57196ZM20.3707 5.19215L20.1944 5.06389L17.8417 8.29884L18.018 8.42709L20.3707 5.19215ZM20.4292 5.10777L19.812 4.90737L18.5768 8.71187L19.194 8.91227L20.4292 5.10777ZM21.1402 5.47166L20.8276 5.28729L18.7957 8.73275L19.1083 8.91712L21.1402 5.47166ZM22.0986 6.36505L21.5695 5.81194L18.679 8.57683L19.208 9.12994L22.0986 6.36505ZM21.9276 6.16153L21.5989 5.98517L19.7077 9.50982L20.0363 9.68617L21.9276 6.16153ZM21.5992 5.97245L21.1664 5.93237L20.7976 9.91533L21.2304 9.95541L21.5992 5.97245ZM22.0159 5.86236L21.1422 5.9826L21.6875 9.94525L22.5612 9.82501L22.0159 5.86236ZM22.9423 5.90402L22.5094 5.85592L22.0677 9.83145L22.5006 9.87955L22.9423 5.90402ZM24.0537 6.19469L23.2761 5.97024L22.1668 9.81333L22.9443 10.0378L24.0537 6.19469ZM24.0873 6.16753L23.7106 6.12745L23.2874 10.105L23.6642 10.1451L24.0873 6.16753ZM24.47 6.07356L23.6443 6.16975L24.1072 10.1429L24.9328 10.0467L24.47 6.07356ZM25.1449 6.07822L24.7922 6.06218L24.6106 10.0581L24.9633 10.0741L25.1449 6.07822ZM25.9364 6.24595L25.5917 6.14976L24.5165 10.0025L24.8612 10.0987L25.9364 6.24595ZM26.6547 6.56028L26.2779 6.37591L24.5197 9.96878L24.8964 10.1531L26.6547 6.56028ZM26.7233 6.55217L26.3465 6.43994L25.2046 10.2735L25.5813 10.3857L26.7233 6.55217ZM26.6618 6.49688L26.2771 6.47283L26.0275 10.465L26.4123 10.4891L26.6618 6.49688ZM26.4976 6.45661L26.1209 6.53677L26.9533 10.4492L27.33 10.369L26.4976 6.45661ZM26.8947 6.13998L25.9489 6.66102L27.8788 10.1646L28.8247 9.64359L26.8947 6.13998ZM27.5352 5.87952L27.1664 6.01579L28.553 9.76777L28.9218 9.6315L27.5352 5.87952ZM30.0737 5.59414L28.0617 5.76247L28.3952 9.74855L30.4072 9.58021L30.0737 5.59414ZM31.3301 5.71798L30.5124 5.60575L29.9685 9.5686L30.7862 9.68082L31.3301 5.71798ZM32.8534 6.49523L32.172 6.03831L29.9442 9.36049L30.6256 9.8174L32.8534 6.49523ZM33.4841 7.08075L33.1715 6.76011L30.3075 9.55252L30.6201 9.87316L33.4841 7.08075ZM33.6373 7.18067L33.2926 6.90812L30.8116 10.0458L31.1563 10.3183L33.6373 7.18067ZM34.1043 7.41827L33.3828 7.00945L31.4108 10.4895L32.1322 10.8984L34.1043 7.41827ZM33.7559 7.24789L33.5234 7.1998L32.713 11.1168L32.9455 11.1649L33.7559 7.24789ZM32.7312 7.29598L32.5629 7.36812L34.1385 11.0447L34.3069 10.9726L32.7312 7.29598ZM32.4622 7.37966L32.1415 7.68427L34.8965 10.5843L35.2172 10.2797L32.4622 7.37966ZM33.21 6.91755L33.0016 7.01374L34.6778 10.6456L34.8862 10.5494L33.21 6.91755ZM34.3823 6.7259L34.0056 6.73392L34.0906 10.733L34.4674 10.725L34.3823 6.7259ZM34.3704 6.64361L33.8173 6.81996L35.0324 10.6309L35.5855 10.4546L34.3704 6.64361ZM35.5187 6.56628L35.0457 6.55025L34.9102 10.5479L35.3831 10.564L35.5187 6.56628ZM36.4168 6.75122L35.9599 6.63098L34.9419 10.4993L35.3988 10.6195L36.4168 6.75122ZM37.326 7.21945L36.9893 7.00301L34.8263 10.3677L35.163 10.5842L37.326 7.21945ZM37.9605 7.77418L37.6238 7.45353L34.8652 10.3501L35.2018 10.6707L37.9605 7.77418ZM38.0441 7.79677L37.6994 7.5643L35.4629 10.8806L35.8076 11.1131L38.0441 7.79677ZM38.638 7.95599L37.62 7.57923L36.2317 11.3306L37.2497 11.7073L38.638 7.95599ZM39.9439 10.0481V9.83166H35.9439V10.0481H39.9439ZM39.7586 10.9363L39.8468 10.6637L36.041 9.43245L35.9528 9.705L39.7586 10.9363ZM39.7931 10.8848L39.8331 10.6203L35.8783 10.021L35.8382 10.2856L39.7931 10.8848ZM39.592 9.64411L39.4797 9.47577L36.1515 11.6946L36.2638 11.8629L39.592 9.64411ZM39.6734 9.54137L39.0882 9.12453L36.7675 12.3825L37.3527 12.7993L39.6734 9.54137ZM41.1731 10.9388L39.8905 9.72034L37.1355 12.6203L38.4181 13.8388L41.1731 10.9388ZM40.9942 10.7659L40.7618 10.6376L38.8294 14.1399L39.0619 14.2682L40.9942 10.7659ZM41.1794 10.8608L40.9469 10.7406L39.1092 14.2935L39.3417 14.4137L41.1794 10.8608ZM44.2082 11.684L40.8094 10.7141L39.7117 14.5605L43.1105 15.5304L44.2082 11.684ZM44.5933 11.7792L44.1444 11.6669L43.1742 15.5475L43.6231 15.6597L44.5933 11.7792ZM45.8213 12.3359L44.9957 11.9271L43.2208 15.5118L44.0464 15.9206L45.8213 12.3359ZM46.4555 12.8032L46.2551 12.6268L43.6126 15.6297L43.813 15.806L46.4555 12.8032ZM47.158 13.6073L46.669 13.0222L43.5995 15.587L44.0885 16.1722L47.158 13.6073ZM46.9292 13.3517L46.7048 13.2074L44.5417 16.5721L44.7662 16.7164L46.9292 13.3517ZM47.4324 13.3647L46.3261 13.0921L45.3693 16.976L46.4755 17.2485L47.4324 13.3647ZM48.396 13.7957L47.859 13.5231L46.0488 17.0901L46.5859 17.3627L48.396 13.7957ZM49.5495 15.5286L49.4213 15.0557L45.5607 16.1026L45.689 16.5756L49.5495 15.5286ZM48.9899 17.5851L49.2624 17.1923L45.9761 14.9119L45.7035 15.3047L48.9899 17.5851ZM48.0894 18.3711L48.5062 18.0745L46.1872 14.8153L45.7704 15.1119L48.0894 18.3711ZM47.9903 18.5013L48.3269 18.1726L45.5328 15.3103L45.1961 15.639L47.9903 18.5013ZM48.5567 17.6841L48.5888 17.2032L44.5976 16.9371L44.5656 17.4181L48.5567 17.6841ZM48.4653 16.7338L48.1286 16.3089L44.9936 18.7933L45.3303 19.2181L48.4653 16.7338ZM47.9538 16.1887L47.4167 16.0444L46.3789 19.9075L46.916 20.0518L47.9538 16.1887ZM48.1567 16.165L47.5715 16.1249L47.2982 20.1156L47.8834 20.1556L48.1567 16.165ZM49.0163 16.3561L48.5354 16.2279L47.5047 20.0928L47.9857 20.221L49.0163 16.3561ZM49.9884 16.9083L49.7159 16.6999L47.2861 19.8773L47.5587 20.0857L49.9884 16.9083ZM50.1982 17.0808L50.0539 16.9606L47.4932 20.0334L47.6375 20.1537L50.1982 17.0808ZM50.0198 16.9284L49.7873 16.8161L48.0483 20.4183L48.2808 20.5306L50.0198 16.9284ZM49.0026 16.7228L48.7861 16.7629L49.5145 20.696L49.7309 20.6559L49.0026 16.7228ZM48.2358 17.0234L48.0595 17.1757L50.674 20.203L50.8503 20.0507L48.2358 17.0234ZM48.2208 16.9538L47.9242 17.3626L51.1619 19.7115L51.4585 19.3027L48.2208 16.9538ZM48.5201 16.6065L48.3598 16.7829L51.3195 19.4736L51.4799 19.2973L48.5201 16.6065ZM49.6601 15.8982L49.1391 16.1467L50.8609 19.7571L51.382 19.5086L49.6601 15.8982ZM51.5695 15.6497L50.4233 15.7058L50.6188 19.701L51.7651 19.6449L51.5695 15.6497ZM51.5298 15.6054L51.113 15.7256L52.2217 19.5689L52.6385 19.4487L51.5298 15.6054ZM51.5548 15.593L51.4185 15.6411L52.7498 19.413L52.8861 19.3649L51.5548 15.593ZM51.1848 15.6783L50.792 16.0791L53.6489 18.8788L54.0417 18.478L51.1848 15.6783ZM51.0222 15.7651L50.8058 16.222L54.4207 17.9343L54.6371 17.4774L51.0222 15.7651ZM51.5891 14.9941L51.3085 15.3227L54.3508 17.9198L54.6314 17.5911L51.5891 14.9941ZM54.1229 14.2691L53.0648 14.2931L53.1557 18.2921L54.2138 18.268L54.1229 14.2691ZM54.0168 14.2108L53.5359 14.3712L54.8008 18.1659L55.2817 18.0056L54.0168 14.2108ZM54.6364 13.8474L53.7065 14.3444L55.5921 17.8721L56.5219 17.3751L54.6364 13.8474ZM55.3862 13.5886L55.0416 13.6848L56.1168 17.5376L56.4614 17.4414L55.3862 13.5886ZM56.3656 13.4733L55.7644 13.5214L56.0833 17.5087L56.6845 17.4606L56.3656 13.4733ZM57.282 13.547L56.777 13.4829L56.2731 17.451L56.7781 17.5151L57.282 13.547ZM58.1411 13.788L57.6441 13.6276L56.4161 17.4345L56.913 17.5948L58.1411 13.788ZM58.9737 14.2192L58.5328 13.9627L56.5213 17.4201L56.9621 17.6766L58.9737 14.2192ZM59.4261 14.5583L59.2417 14.406L56.6942 17.4898L56.8786 17.6421L59.4261 14.5583ZM59.9651 15.1101L59.6124 14.7334L56.6923 17.467L57.045 17.8438L59.9651 15.1101ZM60.3134 15.584L60.1691 15.3675L56.8409 17.5864L56.9852 17.8028L60.3134 15.584ZM60.8508 17.0557L60.5623 16.1098L56.7363 17.277L57.0249 18.2229L60.8508 17.0557ZM60.5402 16.4221L60.3879 16.2618L57.4879 19.0168L57.6402 19.1771L60.5402 16.4221ZM57.683 16.3695L57.5788 16.4897L60.6015 19.1095L60.7058 18.9892L57.683 16.3695ZM57.4319 16.3669L57.2396 17.2567L61.1492 18.102L61.3416 17.2122L57.4319 16.3669ZM57.9127 15.2041L57.568 15.9576L61.2055 17.6216L61.5502 16.868L57.9127 15.2041ZM57.8783 15.238L57.8062 15.4946L61.6568 16.5776L61.7289 16.3211L57.8783 15.238ZM58.5162 14.1627L58.2036 14.5796L61.4036 16.9796L61.7162 16.5627L58.5162 14.1627ZM61.0274 13.507L60.5144 13.4028L59.7181 17.3227L60.2311 17.4269L61.0274 13.507ZM63.1021 14.78L61.7955 13.8422L59.463 17.0917L60.7696 18.0296L63.1021 14.78ZM63.0387 14.7202L62.8303 14.616L61.0414 18.1937L61.2499 18.2979L63.0387 14.7202ZM62.7946 14.6047L62.5781 14.5566L61.7104 18.4614L61.9269 18.5095L62.7946 14.6047ZM62.2336 14.5482L62.0091 14.5883L62.7123 18.526L62.9368 18.4859L62.2336 14.5482ZM62.2262 14.4916L61.7853 14.684L63.3851 18.3501L63.8259 18.1577L62.2262 14.4916ZM62.9852 14.3113L62.7528 14.3434L63.2993 18.3059L63.5318 18.2738L62.9852 14.3113ZM64.3455 14.5642L63.9608 14.4199L62.5563 18.1652L62.941 18.3095L64.3455 14.5642ZM65.3124 15.2428L64.9677 14.9382L62.3189 17.9355L62.6636 18.2401L65.3124 15.2428ZM66.7082 16.9122L65.5378 15.4774L62.4381 18.0056L63.6085 19.4405L66.7082 16.9122ZM67.1512 17.667L66.9267 17.2421L63.3899 19.1106L63.6144 19.5354L67.1512 17.667ZM67.3364 18.0628L67.2001 17.7662L63.5654 19.4362L63.7017 19.7328L67.3364 18.0628ZM67.3353 18.0302L67.215 17.8378L63.823 19.9578L63.9433 20.1502L67.3353 18.0302ZM66.7879 17.3988L66.3951 17.2385L64.8835 20.9419L65.2763 21.1022L66.7879 17.3988ZM66.2666 17.1978L65.7536 17.27L66.3106 21.231L66.8236 21.1589L66.2666 17.1978ZM66.9323 16.9741L65.9704 17.2627L67.1198 21.094L68.0817 20.8054L66.9323 16.9741ZM68.2354 16.9064L67.5541 16.8903L67.46 20.8892L68.1413 20.9053L68.2354 16.9064ZM69.5371 17.1124L68.535 16.9361L67.8417 20.8755L68.8437 21.0519L69.5371 17.1124ZM70.8575 17.5917L69.9276 17.223L68.4531 20.9413L69.383 21.3101L70.8575 17.5917ZM72.1439 18.7536L71.655 18.1685L68.5855 20.7333L69.0745 21.3185L72.1439 18.7536ZM72.5584 20.628L72.5984 20.2433L68.62 19.8289L68.5799 20.2136L72.5584 20.628ZM71.068 24.7385L72.4387 21.1313L68.6996 19.7104L67.3288 23.3176L71.068 24.7385ZM71.224 23.7967L71.1037 23.42L67.2931 24.6361L67.4133 25.0129L71.224 23.7967ZM70.7628 22.9561L70.402 22.7237L68.2352 26.086L68.596 26.3184L70.7628 22.9561ZM71.0061 23.0494L70.5251 22.8249L68.8336 26.4496L69.3146 26.6741L71.0061 23.0494ZM72.6199 24.1494L71.3133 23.2275L69.0073 26.4959L70.314 27.4178L72.6199 24.1494ZM72.8032 24.0642L71.9695 23.8477L70.9644 27.7194L71.798 27.9358L72.8032 24.0642ZM73.8751 24.7461L73.7148 24.5858L70.8864 27.4142L71.0467 27.5746L73.8751 24.7461ZM74.6564 26.2441L74.3117 25.4024L70.6101 26.9183L70.9548 27.76L74.6564 26.2441ZM74.5783 26.0517L74.4581 25.8753L71.1531 28.1287L71.2734 28.305L74.5783 26.0517ZM74.05 25.5141L73.8897 25.4259L71.962 28.9308L72.1224 29.019L74.05 25.5141ZM73.4531 25.2876L73.2287 25.2716L72.9437 29.2614L73.1681 29.2775L73.4531 25.2876ZM72.4749 25.4417L72.2264 25.602L74.3949 28.9632L74.6434 28.8028L72.4749 25.4417ZM73.9165 25.1465L73.7402 25.1305L73.3781 29.114L73.5544 29.1301L73.9165 25.1465ZM75.2658 25.7966L74.9692 25.5642L72.5017 28.7124L72.7983 28.9448L75.2658 25.7966ZM74.1142 25.3364L73.7374 25.3926L74.3267 29.3489L74.7034 29.2928L74.1142 25.3364ZM75.6384 25.7307L75.5182 25.6505L73.2995 28.9788L73.4197 29.0589L75.6384 25.7307ZM76.5572 27.2865L76.4771 26.9418L72.581 27.8478L72.6612 28.1925L76.5572 27.2865ZM75.7518 26.0672L75.4632 25.931L73.7552 29.548L74.0438 29.6843L75.7518 26.0672ZM75.31 25.8842L74.9413 25.8762L74.8543 29.8753L75.2231 29.8833L75.31 25.8842ZM75.5587 25.781L74.8613 25.9252L75.6717 29.8423L76.3691 29.698L75.5587 25.781ZM76.0725 25.7179L75.7599 25.7499L76.168 29.729L76.4806 29.697L76.0725 25.7179ZM76.9382 25.8164L76.826 25.7844L75.7271 29.6305L75.8393 29.6625L76.9382 25.8164ZM77.97 26.4498L77.6574 26.1933L75.1201 29.2856L75.4328 29.5421L77.97 26.4498ZM78.7589 27.3409L78.2378 26.7156L75.165 29.2764L75.686 29.9016L78.7589 27.3409ZM78.419 26.9758L78.0823 26.8155L76.3626 30.427L76.6993 30.5873L78.419 26.9758ZM78.4294 26.8438L77.7159 26.7877L77.4023 30.7754L78.1157 30.8315L78.4294 26.8438ZM79.5689 27.2785L79.2803 27.1101L77.2648 30.5652L77.5534 30.7336L79.5689 27.2785ZM80.4615 28.2146L80.1729 27.8218L76.9494 30.1902L77.2379 30.583L80.4615 28.2146ZM80.2048 31.2001L80.6537 30.2623L77.0457 28.5353L76.5968 29.4732L80.2048 31.2001ZM79.8476 31.8017L80.1041 31.3849L76.6975 29.2885L76.441 29.7053L79.8476 31.8017ZM79.1853 32.6457L79.6983 32.0125L76.5903 29.4945L76.0772 30.1278L79.1853 32.6457ZM78.7622 33.0527L78.9385 32.9004L76.324 29.8731L76.1477 30.0254L78.7622 33.0527ZM78.157 33.4241L78.3493 33.3279L76.5605 29.7502L76.3681 29.8464L78.157 33.4241ZM77.2067 33.65L77.4552 33.626L77.0699 29.6446L76.8214 29.6686L77.2067 33.65ZM76.0091 33.4794L76.5623 33.6076L77.4658 29.711L76.9127 29.5828L76.0091 33.4794ZM76.3775 33.5469L76.642 33.5229L76.2799 29.5393L76.0153 29.5633L76.3775 33.5469ZM77.4562 33.1442L77.6806 32.8957L74.7122 30.2145L74.4877 30.463L77.4562 33.1442ZM77.806 32.7816L77.9263 32.2285L74.0176 31.3787L73.8974 31.9318L77.806 32.7816ZM77.8596 33.1465L77.8516 32.3369L73.8518 32.3765L73.8598 33.1861L77.8596 33.1465ZM77.9679 33.4622L77.8156 32.7488L73.9038 33.5839L74.0561 34.2973L77.9679 33.4622ZM77.628 32.6284L77.3073 32.3559L74.7167 35.4036L75.0374 35.6762L77.628 32.6284ZM75.145 32.5373L75.0408 32.6255L77.6245 35.6791L77.7288 35.5909L75.145 32.5373ZM74.8254 32.8419L74.6811 33.1064L78.1927 35.0218L78.337 34.7573L74.8254 32.8419ZM76.6416 31.7941L76.4813 31.8021L76.681 35.7971L76.8413 35.7891L76.6416 31.7941ZM78.6951 33.3535L78.671 33.2653L74.812 34.3178L74.836 34.406L78.6951 33.3535ZM78.8043 33.4545L78.5318 32.9414L74.9993 34.8181L75.2719 35.3311L78.8043 33.4545ZM79.1275 34.8294L79.0153 34.0919L75.0608 34.6937L75.1731 35.4311L79.1275 34.8294ZM79.1689 34.8962L79.0647 34.5515L75.2359 35.709L75.3401 36.0537L79.1689 34.8962ZM79.0491 34.5318L78.8487 34.2672L75.6603 36.6827L75.8607 36.9472L79.0491 34.5318ZM79.2186 34.528L78.5933 34.0951L76.3165 37.3839L76.9417 37.8167L79.2186 34.528ZM79.0367 34.4089L78.8925 34.3447L77.2679 38L77.4122 38.0641L79.0367 34.4089ZM78.9802 34.3681L78.7398 34.304L77.7091 38.1689L77.9496 38.2331L78.9802 34.3681ZM80.387 35.3561L79.8258 34.835L77.104 37.7662L77.6652 38.2872L80.387 35.3561ZM80.9605 35.469L79.8062 34.9801L78.2459 38.6632L79.4002 39.1522L80.9605 35.469ZM81.798 35.9504L81.2128 35.5977L79.1479 39.0235L79.7331 39.3762L81.798 35.9504ZM82.791 37.3043L82.5986 36.8634L78.9324 38.4632L79.1248 38.9041L82.791 37.3043ZM80.4135 36.1696L80.2291 36.2417L81.6867 39.9667L81.8711 39.8946L80.4135 36.1696ZM82.3478 36.4321L82.2517 36.3679L80.0329 39.6962L80.1291 39.7603L82.3478 36.4321ZM83.0425 37.2185L82.9624 37.0822L79.5146 39.1102L79.5947 39.2464L83.0425 37.2185ZM83.0534 37.1768L82.821 36.9122L79.8163 39.5527L80.0488 39.8172L83.0534 37.1768ZM83.6026 37.9809L83.2259 37.4037L79.8763 39.5902L80.2531 40.1674L83.6026 37.9809ZM83.9101 38.7138L83.838 38.4813L80.0177 39.667L80.0899 39.8994L83.9101 38.7138ZM81.8637 41.3066H82V37.3066H81.8637V41.3066ZM83.3118 40.696L83.416 40.5677L80.3115 38.0455L80.2073 38.1737L83.3118 40.696ZM83.7095 40.0347L83.7496 39.6339L79.7694 39.2358L79.7294 39.6366L83.7095 40.0347ZM83.4619 40.8415L83.5501 40.6411L79.8888 39.0302L79.8006 39.2306L83.4619 40.8415ZM82.8593 41.6509L83.0918 41.4024L80.1707 38.6698L79.9383 38.9182L82.8593 41.6509ZM83.2203 41.2202L83.3325 40.7953L79.4651 39.7738L79.3529 40.1987L83.2203 41.2202ZM83.2087 41.4882L83.2729 40.9431L79.3003 40.4757L79.2361 41.0208L83.2087 41.4882ZM83.0782 42.1656L83.1824 41.6526L79.2625 40.8564L79.1583 41.3694L83.0782 42.1656ZM82.5322 43.2351L82.7567 42.9145L79.4798 40.6206L79.2553 40.9412L82.5322 43.2351ZM80.9821 44.101L81.2226 44.061L80.565 40.1154L80.3245 40.1555L80.9821 44.101ZM79.8794 43.9872L80.1038 44.0513L81.2028 40.2052L80.9783 40.1411L79.8794 43.9872ZM79.9906 44.0295L80.2231 44.0535L80.6347 40.0747L80.4022 40.0507L79.9906 44.0295ZM81.0321 43.881L81.2806 43.7207L79.1122 40.3595L78.8636 40.5198L81.0321 43.881ZM81.5779 43.3952L81.7141 43.1387L78.1816 41.2621L78.0454 41.5186L81.5779 43.3952ZM81.6602 43.263L81.7323 43.0145L77.8909 41.8993L77.8188 42.1478L81.6602 43.263ZM81.3358 43.9265L81.44 43.7581L78.0389 41.6527L77.9347 41.821L81.3358 43.9265ZM79.4412 44.8808L79.6977 44.8728L79.5728 40.8747L79.3163 40.8827L79.4412 44.8808ZM78.1427 44.4741L78.3591 44.6023L80.3984 41.1612L80.1819 41.0329L78.1427 44.4741ZM77.2101 43.4645L77.5387 43.9214L80.7859 41.5856L80.4573 41.1287L77.2101 43.4645ZM77.3469 43.6597L77.5473 43.828L80.1201 40.7652L79.9197 40.5969L77.3469 43.6597ZM77.3019 43.7953L78.0073 44.0278L79.2593 40.2287L78.5538 39.9963L77.3019 43.7953ZM76.6342 43.4487L76.8827 43.601L78.973 40.1906L78.7245 40.0383L76.6342 43.4487ZM75.6286 42.5821L76.334 43.2234L79.0247 40.2636L78.3193 39.6223L75.6286 42.5821ZM75.0647 41.9152L75.4094 42.3481L78.5385 39.8563L78.1938 39.4235L75.0647 41.9152ZM75.0531 41.9289L75.2454 42.1133L78.0131 39.2254L77.8207 39.041L75.0531 41.9289ZM75.5105 42.2715L75.7189 42.3517L77.1548 38.6183L76.9464 38.5381L75.5105 42.2715ZM75.3485 42.4127L76.2463 42.4047L76.2106 38.4049L75.3128 38.4129L75.3485 42.4127ZM75.5373 42.4207L75.8018 42.3565L74.8595 38.4691L74.5949 38.5332L75.5373 42.4207ZM75.5227 42.5571L76.1399 42.1643L73.9924 38.7896L73.3751 39.1824L75.5227 42.5571ZM74.8969 42.8357L75.1374 42.7475L73.7604 38.992L73.5199 39.0802L74.8969 42.8357ZM74.0859 42.9751L74.3745 42.951L74.0423 38.9648L73.7538 38.9889L74.0859 42.9751ZM73.1268 42.9053L73.6959 42.9694L74.1438 38.9945L73.5746 38.9304L73.1268 42.9053ZM70.8909 42.1464L72.6624 42.7957L74.039 39.04L72.2674 38.3907L70.8909 42.1464ZM69.7092 41.4741L70.5429 41.9792L72.6154 38.5579L71.7817 38.0529L69.7092 41.4741ZM68.9448 40.8484L69.4337 41.2733L72.0572 38.2538L71.5683 37.8289L68.9448 40.8484ZM68.277 39.9498L68.5655 40.4067L71.9475 38.2707L71.6589 37.8138L68.277 39.9498ZM68.6745 37.2991L68.4099 37.6277L71.5259 40.1358L71.7905 39.8071L68.6745 37.2991ZM69.8394 36.5709L69.5668 36.6671L70.8981 40.4391L71.1707 40.3429L69.8394 36.5709ZM69.7237 36.6049L69.5473 36.7011L71.4627 40.2127L71.6391 40.1165L69.7237 36.6049ZM68.6926 38.5934L68.7086 38.6896L72.6541 38.0318L72.6381 37.9356L68.6926 38.5934ZM69.642 40.0093L69.9226 40.1215L71.4081 36.4076L71.1275 36.2953L69.642 40.0093ZM69.2033 39.9508L69.9809 40.1111L70.7887 36.1935L70.0111 36.0332L69.2033 39.9508ZM67.161 39.1803L68.8764 39.8537L70.338 36.1303L68.6226 35.4569L67.161 39.1803ZM66.1232 38.3939L66.508 38.7626L69.2756 35.8746L68.8908 35.5059L66.1232 38.3939ZM65.8292 38.0708L66.0056 38.2712L69.0084 35.6286L68.8321 35.4282L65.8292 38.0708ZM66.7965 38.6852L66.9729 38.7172L67.6884 34.7818L67.5121 34.7497L66.7965 38.6852ZM67.347 38.7501L67.7397 38.6298L66.5689 34.805L66.1761 34.9253L67.347 38.7501ZM66.72 38.8518L66.9605 38.8278L66.5625 34.8476L66.322 34.8717L66.72 38.8518ZM65.9118 38.776L66.0962 38.8161L66.9459 34.9074L66.7615 34.8673L65.9118 38.776ZM64.8454 38.3039L65.4225 38.6005L67.2508 35.0428L66.6737 34.7462L64.8454 38.3039ZM64.6225 38.1884L64.8389 38.3006L66.6801 34.7495L66.4637 34.6373L64.6225 38.1884ZM65.0281 38.385L65.4209 38.4091L65.6653 34.4166L65.2725 34.3925L65.0281 38.385ZM65.4332 38.4103L65.818 38.274L64.4826 34.5035L64.0978 34.6398L65.4332 38.4103ZM63.0944 40.5158L66.0443 38.0629L63.4868 34.9872L60.5369 37.4401L63.0944 40.5158ZM62.7143 40.7727L62.8585 40.6845L60.7727 37.2714L60.6284 37.3596L62.7143 40.7727ZM62.7463 40.7925L63.0188 40.544L60.3238 37.5882L60.0513 37.8367L62.7463 40.7925ZM62.4255 41.0402L62.5698 40.936L60.2278 37.6933L60.0835 37.7975L62.4255 41.0402ZM60.8413 41.4265L61.2902 41.4185L61.2188 37.4192L60.7699 37.4272L60.8413 41.4265ZM59.3493 41.2276L60.5036 41.4039L61.1077 37.4498L59.9534 37.2734L59.3493 41.2276ZM60.8331 40.8972L61.0655 40.6647L58.2371 37.8363L58.0046 38.0687L60.8331 40.8972ZM61.3371 38.8652L61.2329 38.6408L57.6048 40.3252L57.709 40.5496L61.3371 38.8652ZM60.8453 38.1285L60.4044 37.9121L58.6417 41.5027L59.0826 41.7192L60.8453 38.1285ZM61.7097 38.9239L61.5814 38.7475L58.3464 41.1002L58.4747 41.2765L61.7097 38.9239ZM61.5994 41.431L61.7197 41.2627L58.4647 38.9377L58.3445 39.1061L61.5994 41.431ZM59.9137 42.2924L60.2263 42.2523L59.7176 38.2848L59.405 38.3249L59.9137 42.2924ZM57.8751 42.2762L59.6226 42.3083L59.696 38.309L57.9485 38.2769L57.8751 42.2762ZM56.6669 41.931L57.1639 42.1314L58.6598 38.4217L58.1628 38.2213L56.6669 41.931ZM56.91 42.0265L57.1505 42.0586L57.6791 38.0937L57.4387 38.0616L56.91 42.0265ZM57.7667 41.9753L58.0232 41.855L56.3255 38.2332L56.069 38.3534L57.7667 41.9753ZM58.3579 41.5749L58.5102 41.3745L55.3255 38.9542L55.1732 39.1546L58.3579 41.5749ZM58.3644 41.6018L58.5087 41.3452L55.0224 39.3842L54.8781 39.6407L58.3644 41.6018ZM57.7521 42.2872L57.9285 42.1349L55.314 39.1076L55.1376 39.2599L57.7521 42.2872ZM55.6387 42.6221L55.8872 42.6942L57.0025 38.8529L56.754 38.7807L55.6387 42.6221ZM54.1841 41.0751L54.3524 41.4759L58.0404 39.9269L57.872 39.5261L54.1841 41.0751ZM56.0245 42.3047L56.1528 42.2967L55.9033 38.3045L55.7751 38.3125L56.0245 42.3047ZM57.0107 42.0339L57.3314 41.7053L54.4682 38.912L54.1476 39.2406L57.0107 42.0339ZM55.8259 42.6445L56.1144 42.5643L55.0439 38.7102L54.7553 38.7904L55.8259 42.6445ZM54.9051 42.6977L55.1696 42.7138L55.4116 38.7211L55.147 38.7051L54.9051 42.6977ZM54.078 42.4848L54.3426 42.581L55.7095 38.8218L55.445 38.7256L54.078 42.4848ZM53.0897 41.9297L53.723 42.3144L55.8 38.896L55.1668 38.5112L53.0897 41.9297ZM53.7666 42.1934L53.9189 42.2094L54.3376 38.2314L54.1853 38.2154L53.7666 42.1934ZM54.404 42.1632L54.5403 42.1231L53.4116 38.2857L53.2753 38.3258L54.404 42.1632ZM54.8743 42.0016L55.1709 41.7371L52.5085 38.7519L52.2119 39.0164L54.8743 42.0016ZM53.6004 42.5284L53.881 42.4803L53.2052 38.5378L52.9246 38.5859L53.6004 42.5284ZM52.2915 42.3211L52.5079 42.4093L54.0171 38.7049L53.8007 38.6168L52.2915 42.3211ZM51.3282 41.7109L51.9053 42.1117L54.1869 38.8262L53.6097 38.4254L51.3282 41.7109ZM51.3742 41.7793L51.7029 41.9156L53.235 38.2207L52.9063 38.0844L51.3742 41.7793ZM52.1368 41.936L52.2651 41.928L52.0155 37.9358L51.8872 37.9438L52.1368 41.936ZM53.0291 41.67L53.1654 41.5738L50.8587 38.3059L50.7224 38.4021L53.0291 41.67ZM53.8117 40.6013L53.8518 40.3448L49.8997 39.7273L49.8596 39.9838L53.8117 40.6013ZM53.6148 41.221L53.6789 41.0687L49.9924 39.5165L49.9283 39.6688L53.6148 41.221ZM53.0014 42.0435L53.1858 41.8591L50.3573 39.0307L50.173 39.215L53.0014 42.0435ZM52.3209 42.5087L52.5533 42.3804L50.621 38.8781L50.3885 39.0064L52.3209 42.5087ZM51.4668 42.7714L51.7233 42.7233L50.9861 38.7918L50.7296 38.8399L51.4668 42.7714ZM50.0437 42.5844L50.5488 42.7287L51.6476 38.8826L51.1426 38.7383L50.0437 42.5844ZM50.5665 42.6748L50.799 42.6507L50.3874 38.6719L50.1549 38.696L50.5665 42.6748ZM50.7005 42.7257L51.1814 42.5092L49.54 38.8615L49.059 39.078L50.7005 42.7257ZM50.119 42.9074L50.3915 42.8352L49.368 38.9684L49.0954 39.0405L50.119 42.9074ZM49.8139 42.9818L50.0784 42.9176L49.136 39.0303L48.8715 39.0944L49.8139 42.9818ZM48.2799 43.0617L49.3862 43.0376L49.2992 39.0386L48.193 39.0626L48.2799 43.0617ZM48.5008 43.1213L49.0139 42.9049L47.4591 39.2194L46.9461 39.4358L48.5008 43.1213ZM48.495 43.2659L49.0481 42.777L46.3988 39.7802L45.8457 40.2691L48.495 43.2659ZM47.7026 43.7118L47.935 43.6156L46.4057 39.9195L46.1732 40.0157L47.7026 43.7118ZM46.8029 43.8812L47.0995 43.8572L46.7762 39.8703L46.4797 39.8943L46.8029 43.8812ZM44.4231 43.5958L46.363 43.8683L46.9195 39.9072L44.9797 39.6347L44.4231 43.5958ZM44.2509 43.6303L44.7639 43.6143L44.6389 39.6162L44.1259 39.6322L44.2509 43.6303ZM44.3097 43.7447L44.951 43.4801L43.4257 39.7824L42.7844 40.0469L44.3097 43.7447ZM43.9422 43.8603L44.0625 43.8283L43.0317 39.9633L42.9115 39.9954L43.9422 43.8603ZM42.9211 43.877L43.1536 43.9091L43.7001 39.9466L43.4677 39.9146L42.9211 43.877ZM41.4297 40.8575L41.2934 41.2743L45.0954 42.5173L45.2317 42.1004L41.4297 40.8575ZM41.3363 41.9181L41.5046 42.2948L45.1567 40.6631L44.9883 40.2863L41.3363 41.9181ZM41.4937 42.2904L41.8224 42.587L44.5023 39.6174L44.1736 39.3208L41.4937 42.2904ZM41.484 42.3282L41.8047 42.5206L43.8626 39.0906L43.542 38.8982L41.484 42.3282ZM41.6031 42.4366L41.9798 42.5408L43.0462 38.6856L42.6695 38.5814L41.6031 42.4366ZM41.9308 42.5282L42.2755 42.5042L41.9971 38.5139L41.6524 38.5379L41.9308 42.5282ZM41.241 42.7693L42.3392 42.4566L41.244 38.6095L40.1458 38.9221L41.241 42.7693ZM39.3407 42.3349L39.517 42.4632L41.8697 39.2282L41.6934 39.1L39.3407 42.3349ZM38.3781 40.7512L38.6586 41.4566L42.3754 39.9783L42.0949 39.2729L38.3781 40.7512ZM38.4963 41.0627L38.7368 41.3353L41.7361 38.6888L41.4957 38.4162L38.4963 41.0627ZM39.4912 41.6899L39.7317 41.7219L40.2603 37.757L40.0198 37.725L39.4912 41.6899ZM39.7316 41.7249L39.9962 41.6929L39.5149 37.7219L39.2503 37.754L39.7316 41.7249ZM38.5522 41.5373L38.8728 41.6415L40.1092 37.8374L39.7885 37.7332L38.5522 41.5373ZM38.9164 37.5222L38.2671 37.8508L40.0736 41.4197L40.7229 41.091L38.9164 37.5222ZM38.6462 37.6712L38.4778 37.8235L41.1615 40.7897L41.3298 40.6374L38.6462 37.6712ZM38.5019 37.7864L38.3416 38.0188L41.6344 40.2898L41.7947 40.0573L38.5019 37.7864ZM38.1711 39.2339L38.1871 39.3141L42.1095 38.5296L42.0934 38.4494L38.1711 39.2339ZM39.5112 40.7744L39.8559 40.8225L40.4087 36.8609L40.064 36.8128L39.5112 40.7744ZM38.5559 40.4215L38.9247 40.5979L40.6505 36.9893L40.2818 36.813L38.5559 40.4215ZM37.5247 39.6174L38.1018 40.1224L40.7358 37.1121L40.1587 36.6071L37.5247 39.6174ZM36.8342 39.1587L37.708 39.7599L39.9754 36.4646L39.1016 35.8634L36.8342 39.1587ZM36.3173 38.6701L36.4936 38.8625L39.4423 36.1596L39.2659 35.9672L36.3173 38.6701ZM35.6672 37.5733L36.0199 38.2467L39.5632 36.3906L39.2105 35.7173L35.6672 37.5733ZM36.0283 38.0853L36.2287 38.2376L38.649 35.053L38.4486 34.9007L36.0283 38.0853ZM35.5607 37.6139L35.7371 37.8143L38.7399 35.1717L38.5635 34.9713L35.5607 37.6139ZM36.0641 38.0654L36.4168 38.1856L37.7075 34.3996L37.3548 34.2793L36.0641 38.0654ZM35.6055 37.8438L35.7017 37.8999L37.7171 34.4448L37.621 34.3887L35.6055 37.8438ZM34.7613 36.8976L34.8574 37.074L38.369 35.1585L38.2728 34.9822L34.7613 36.8976ZM34.5481 36.349L34.6122 36.5494L38.4219 35.3303L38.3577 35.1299L34.5481 36.349ZM34.8379 36.9271L34.9261 37.0313L37.9797 34.4476L37.8915 34.3434L34.8379 36.9271ZM37.2944 37.4164L37.4547 37.3122L35.2748 33.9584L35.1144 34.0626L37.2944 37.4164ZM37.4344 37.3777L37.7229 37.0411L34.6859 34.4379L34.3973 34.7746L37.4344 37.3777ZM35.0794 37.9081L35.3038 37.9802L36.5278 34.1721L36.3034 34.0999L35.0794 37.9081ZM33.9984 37.1218L34.2309 37.3703L37.1519 34.6377L36.9194 34.3892L33.9984 37.1218ZM34.1187 37.2821L34.4233 37.4665L36.4945 34.0445L36.1899 33.8601L34.1187 37.2821ZM33.5816 34.3209L33.4774 34.4812L36.8312 36.6611L36.9354 36.5008L33.5816 34.3209ZM34.1851 33.6956L33.9527 33.896L36.5644 36.9257L36.7968 36.7253L34.1851 33.6956ZM34.0687 33.7966L33.9725 33.9088L37.0095 36.512L37.1057 36.3998L34.0687 33.7966ZM33.7552 34.164L33.643 34.6289L37.5313 35.5675L37.6436 35.1025L33.7552 34.164ZM34.1315 33.3796L34.0353 33.5239L37.3635 35.7427L37.4597 35.5984L34.1315 33.3796ZM34.6767 36.1656L34.9012 36.2778L36.69 32.7001L36.4656 32.5879L34.6767 36.1656ZM33.7242 36.2251L35.3995 36.3694L35.7428 32.3841L34.0674 32.2398L33.7242 36.2251ZM33.4541 36.2742L34.0553 36.2261L33.7363 32.2388L33.1351 32.2869L33.4541 36.2742ZM33.6627 36.2686L33.9432 36.1725L32.6459 32.3887L32.3654 32.4849L33.6627 36.2686ZM33.9575 36.1691L34.214 35.9768L31.814 32.7767L31.5575 32.9691L33.9575 36.1691ZM34.458 35.6613L34.5783 35.3967L30.9368 33.7415L30.8165 34.0061L34.458 35.6613ZM34.4958 35.8236L34.6081 35.1743L30.6665 34.493L30.5543 35.1423L34.4958 35.8236ZM34.2255 36.5751L34.3458 36.3106L30.7043 34.6553L30.5841 34.9199L34.2255 36.5751ZM33.5754 37.413L33.84 37.1404L30.9696 34.3545L30.7051 34.6271L33.5754 37.413ZM33.4667 37.6516L33.8194 37.1065L30.4611 34.9335L30.1084 35.4786L33.4667 37.6516ZM32.6233 38.406L32.8718 38.2457L30.7033 34.8845L30.4548 35.0449L32.6233 38.406ZM31.3396 38.7387L31.6442 38.7227L31.434 34.7282L31.1294 34.7442L31.3396 38.7387ZM28.4143 37.7866L30.5065 38.6043L31.9625 34.8787L29.8703 34.061L28.4143 37.7866ZM28.6665 37.9529L29.2517 37.9209L29.0329 33.9268L28.4477 33.9589L28.6665 37.9529ZM28.1058 37.9246L28.3863 37.9486L28.7279 33.9632L28.4474 33.9392L28.1058 37.9246ZM26.722 37.2194L26.9224 37.4037L29.6307 34.46L29.4303 34.2756L26.722 37.2194ZM26.8551 37.3438L27.0235 37.448L29.1288 34.047L28.9605 33.9427L26.8551 37.3438ZM27.6365 37.6334L27.8209 37.6414L27.9947 33.6452L27.8103 33.6372L27.6365 37.6334ZM27.9177 37.6643L28.2944 37.552L27.1525 33.7185L26.7757 33.8307L27.9177 37.6643ZM26.3185 37.4731L26.4868 37.5532L28.2065 33.9418L28.0382 33.8616L26.3185 37.4731ZM26.6358 37.5999L26.8041 37.632L27.5526 33.7027L27.3843 33.6706L26.6358 37.5999ZM27.1245 37.6392L27.2929 37.6152L26.7272 33.6554L26.5588 33.6794L27.1245 37.6392ZM27.6014 37.5192L27.7697 37.431L25.9137 33.8877L25.7453 33.9758L27.6014 37.5192ZM26.8265 37.7904L27.2514 37.6621L26.0953 33.8328L25.6705 33.9611L26.8265 37.7904ZM24.6773 37.4124L25.527 37.7411L26.97 34.0104L26.1203 33.6818L24.6773 37.4124ZM25.6871 37.5936L26.168 37.3932L24.6296 33.7009L24.1486 33.9013L25.6871 37.5936ZM25.912 37.4952L26.0803 37.375L23.7553 34.12L23.587 34.2403L25.912 37.4952ZM26.0296 37.5368L26.3983 36.9998L23.1007 34.7357L22.732 35.2728L26.0296 37.5368ZM25.2097 38.333L25.6906 37.9162L23.0709 34.8934L22.5899 35.3103L25.2097 38.333ZM24.7799 38.6222L24.8921 38.5581L22.9075 35.0852L22.7953 35.1493L24.7799 38.6222ZM22.831 38.6493L22.9753 38.7134L24.5999 35.0582L24.4556 34.994L22.831 38.6493ZM21.8066 37.8437L22.2795 38.2846L25.007 35.3587L24.5341 34.9178L21.8066 37.8437ZM22.3493 38.2124L22.5097 38.2685L23.831 34.493L23.6707 34.4369L22.3493 38.2124ZM22.4315 38.2718L22.7842 38.3119L23.2358 34.3374L22.8831 34.2974L22.4315 38.2718ZM21.7596 38.0778L21.8958 38.1339L23.4188 34.4352L23.2825 34.3791L21.7596 38.0778ZM20.657 36.9623L20.7051 37.0666L24.337 35.3904L24.2889 35.2861L20.657 36.9623ZM20.4931 35.747L20.4771 35.9955L24.4688 36.253L24.4848 36.0045L20.4931 35.747ZM21.3845 37.5481L21.4967 37.6122L23.4813 34.1393L23.369 34.0751L21.3845 37.5481ZM22.9152 37.7652L23.2118 37.629L21.5418 33.9943L21.2452 34.1305L22.9152 37.7652ZM21.8965 37.9721L22.2573 37.94L21.9031 33.9558L21.5423 33.9878L21.8965 37.9721ZM21.1413 37.9003L21.2856 37.9323L22.1533 34.0276L22.009 33.9955L21.1413 37.9003ZM19.524 37.2539L20.7985 37.7909L22.3518 34.1048L21.0772 33.5678L19.524 37.2539ZM19.3388 33.027L18.5532 34.4378L22.048 36.3838L22.8335 34.973L19.3388 33.027ZM19.8146 32.3491L19.4699 32.822L22.7025 35.178L23.0472 34.705L19.8146 32.3491ZM21.0558 31.3815L20.3344 31.8544L22.5274 35.1997L23.2488 34.7267L21.0558 31.3815ZM20.5066 31.8039L20.3062 32.2849L23.9985 33.8233L24.1989 33.3424L20.5066 31.8039ZM21.2054 30.6114L20.6443 31.5333L24.0611 33.613L24.6222 32.6912L21.2054 30.6114ZM20.9725 30.9806L20.9244 31.4455L24.9032 31.8571L24.9513 31.3922L20.9725 30.9806ZM21.2665 30.1143L21.1943 30.2506L24.7295 32.1221L24.8016 31.9859L21.2665 30.1143ZM21.5925 29.6242L21.4001 29.8967L24.668 32.2035L24.8604 31.9309L21.5925 29.6242ZM21.4308 29.8483L21.3346 30.1289L25.1183 31.4262L25.2145 31.1456L21.4308 29.8483ZM21.3226 29.1984V30.497H25.3226V29.1984H21.3226ZM21.3226 29.1343L21.3226 29.1985L25.3226 29.1983L25.3226 29.1342L21.3226 29.1343ZM21.1985 28.4071L21.3427 29.4171L25.3025 28.8514L25.1583 27.8414L21.1985 28.4071ZM21.1586 27.8857L21.1826 28.2544L25.1741 27.9941L25.1501 27.6254L21.1586 27.8857ZM21.1538 27.973L21.2019 28.1894L25.1067 27.3216L25.0586 27.1052L21.1538 27.973ZM20.8797 27.6719L21.3687 28.5296L24.8437 26.5485L24.3547 25.6908L20.8797 27.6719ZM20.5187 27.038L20.8794 27.6713L24.3551 25.6915L23.9944 25.0582L20.5187 27.038ZM20.6172 27.2448L20.8657 27.4853L23.6473 24.6109L23.3989 24.3704L20.6172 27.2448ZM19.985 25.8653L20.0411 26.1699L23.9749 25.4453L23.9188 25.1407L19.985 25.8653ZM19.9297 25.0368L19.9538 25.5899L23.95 25.4161L23.926 24.863L19.9297 25.0368ZM19.8488 24.4819L19.945 25.2114L23.9107 24.6884L23.8145 23.959L19.8488 24.4819ZM19.2756 22.5584L19.9089 24.7708L23.7544 23.6701L23.1212 21.4577L19.2756 22.5584ZM19.3496 22.8112L19.4778 23.0276L22.919 20.9884L22.7907 20.772L19.3496 22.8112ZM19.3353 22.8852L19.6559 23.2058L22.4844 20.3774L22.1637 20.0567L19.3353 22.8852ZM18.7119 21.5329L18.8 21.9177L22.699 21.0242L22.6108 20.6394L18.7119 21.5329Z" fill="#00906B"/>
</svg>
